<?xml version="1.0" encoding="UTF-8"?>
<svg id="Layer_2" data-name="Layer 2" xmlns="http://www.w3.org/2000/svg" viewBox="0 0 545.43 744.15">
  <defs>
    <style>
      .cls-1 {
        fill: #eee;
      }

      .cls-1, .cls-2, .cls-3, .cls-4, .cls-5, .cls-6, .cls-7, .cls-8 {
        stroke-width: 0px;
      }

      .cls-2 {
        fill: #98bad2;
      }

      .cls-3 {
        fill: #cdcdcd;
      }

      .cls-4 {
        fill: #e9e9e9;
      }

      .cls-5 {
        fill: #9bbed7;
      }

      .cls-6 {
        fill: #86a4b9;
      }

      .cls-9 {
        opacity: .3;
      }

      .cls-10 {
        opacity: .5;
      }

      .cls-11 {
        opacity: .7;
      }

      .cls-12 {
        isolation: isolate;
      }

      .cls-7 {
        fill: #fff;
      }

      .cls-8 {
        fill: #a6cce6;
      }
    </style>
  </defs>
  <g id="Layer_3" data-name="Layer 3">
    <g class="cls-9">
      <g>
        <path class="cls-7" d="M371.42,222.06l323.33,209.97-107.1,38.62-61.87-40.18,30.21-10.89-261.46-169.79,76.89-27.72ZM587.89,469.91l105.32-37.97-322.02-209.12-75.11,27.08,261.46,169.79-30.21,10.89,60.56,39.33"/>
        <path class="cls-7" d="M231.26,272.6l323.33,209.97-79.47,28.66-261.46-169.79-152.41,54.96L-.63,356.21l231.89-83.61ZM475.35,510.48l77.69-28.01-322.02-209.12L.92,356.32l60.56,39.33,152.41-54.96,261.46,169.79"/>
        <path class="cls-8" d="M163.7,385.73l235.44,152.89-224.92,81.1-323.33-209.97,76.43-27.56,261.47,169.8,72.05-25.98-173.58-112.72,76.43-27.56ZM174.45,618.98l223.14-80.46-234.12-152.04-74.65,26.92,173.57,112.72-73.83,26.62L-72.91,382.94l-74.65,26.92,322.02,209.12"/>
      </g>
    </g>
    <g class="cls-10">
      <g>
        <g class="cls-12">
          <polygon class="cls-1" points="370.64 125.96 371.32 222.32 296.21 249.4 295.53 153.04 370.64 125.96"/>
          <polygon class="cls-3" points="692.66 335.08 693.33 431.44 371.32 222.32 370.64 125.96 692.66 335.08"/>
          <polygon class="cls-3" points="555.44 322.73 556.12 419.09 294.66 249.3 293.99 152.94 555.44 322.73"/>
          <polygon class="cls-1" points="556.99 322.83 557.66 419.19 527.45 430.09 526.78 333.73 556.99 322.83"/>
          <path class="cls-4" d="M370.88,125.21l323.33,209.97-107.1,38.62-61.87-40.18,30.21-10.89-261.46-169.79,76.89-27.72ZM587.34,373.05l105.32-37.97L370.64,125.96l-75.11,27.08,261.46,169.79-30.21,10.89,60.56,39.33"/>
          <polygon class="cls-3" points="587.1 373.8 587.78 470.16 525.91 429.98 525.23 333.62 587.1 373.8"/>
        </g>
        <g class="cls-12">
          <polygon class="cls-1" points="230.48 176.5 231.15 272.86 1.05 355.83 .37 259.47 230.48 176.5"/>
          <polygon class="cls-1" points="213.11 244.59 213.78 340.95 61.37 395.9 60.7 299.54 213.11 244.59"/>
          <polygon class="cls-3" points="60.7 299.54 61.37 395.9 -.5 355.72 -1.17 259.36 60.7 299.54"/>
          <polygon class="cls-5" points="162.92 289.63 163.59 385.99 88.94 412.91 88.27 316.55 162.92 289.63"/>
          <polygon class="cls-3" points="552.49 385.62 553.16 481.98 231.15 272.86 230.48 176.5 552.49 385.62"/>
          <polygon class="cls-1" points="554.04 385.72 554.71 482.08 475.24 510.74 474.57 414.38 554.04 385.72"/>
          <polygon class="cls-3" points="474.57 414.38 475.24 510.74 213.78 340.95 213.11 244.59 474.57 414.38"/>
          <path class="cls-4" d="M230.71,175.75l323.33,209.97-79.47,28.66L213.11,244.59l-152.41,54.96L-1.17,259.36l231.89-83.61ZM474.8,413.63l77.69-28.01L230.48,176.5.37,259.47l60.56,39.33,152.41-54.96,261.46,169.79"/>
          <polygon class="cls-6" points="397.04 441.67 397.71 538.03 163.59 385.99 162.92 289.63 397.04 441.67"/>
          <polygon class="cls-6" points="260.29 429.16 260.97 525.52 87.39 412.8 86.72 316.44 260.29 429.16"/>
          <polygon class="cls-6" points="188.01 455.89 188.68 552.25 -72.79 382.45 -73.46 286.09 188.01 455.89"/>
          <polygon class="cls-5" points="261.84 429.27 262.51 525.63 188.68 552.25 188.01 455.89 261.84 429.27"/>
          <path class="cls-2" d="M163.16,288.88l235.43,152.89-224.92,81.1-323.33-209.97,76.44-27.56,261.47,169.8,72.05-25.98-173.57-112.72,76.44-27.56ZM173.9,522.12l223.14-80.46-234.12-152.04-74.65,26.92,173.57,112.72-73.83,26.62L-73.46,286.09l-74.65,26.92,322.01,209.12"/>
          <polygon class="cls-6" points="173.67 522.87 174.34 619.23 -148.99 409.26 -149.66 312.9 173.67 522.87"/>
          <polygon class="cls-5" points="398.59 441.77 399.26 538.13 174.34 619.23 173.67 522.87 398.59 441.77"/>
        </g>
      </g>
    </g>
    <g class="cls-11">
      <g>
        <g class="cls-12">
          <polygon class="cls-7" points="556.55 321 556.56 321.87 295.1 152.08 295.1 151.21 556.55 321"/>
          <polygon class="cls-7" points="693.76 333.35 587.56 371.64 526.34 331.89 556.55 321 295.1 151.21 371.09 123.81 693.76 333.35"/>
          <polygon class="cls-7" points="587.56 371.64 587.56 372.52 526.35 332.77 526.34 331.89 587.56 371.64"/>
        </g>
        <g class="cls-12">
          <polygon class="cls-7" points="213.56 242.43 213.57 243.31 61.15 298.26 61.14 297.39 213.56 242.43"/>
          <polygon class="cls-7" points="61.14 297.39 61.15 298.26 -.06 258.51 -.07 257.64 61.14 297.39"/>
          <polygon class="cls-7" points="553.59 383.89 475.02 412.22 213.56 242.43 61.14 297.39 -.07 257.64 230.92 174.35 553.59 383.89"/>
          <polygon class="cls-7" points="553.59 383.89 553.6 384.77 475.03 413.1 475.02 412.22 553.59 383.89"/>
          <polygon class="cls-7" points="475.02 412.22 475.03 413.1 213.57 243.31 213.56 242.43 475.02 412.22"/>
          <polygon class="cls-8" points="261.4 427.43 261.4 428.31 87.83 315.59 87.82 314.71 261.4 427.43"/>
          <polygon class="cls-8" points="174.11 520.72 174.12 521.59 -148.55 312.05 -148.56 311.17 174.11 520.72"/>
          <polygon class="cls-8" points="398.14 439.94 398.15 440.82 174.12 521.59 174.11 520.72 398.14 439.94"/>
          <polygon class="cls-8" points="398.14 439.94 174.11 520.72 -148.56 311.17 -73.01 283.94 188.45 453.73 191.46 452.65 258.39 428.51 261.4 427.43 87.82 314.71 163.37 287.48 398.14 439.94"/>
        </g>
      </g>
    </g>
  </g>
</svg>