<?xml version="1.0" encoding="UTF-8"?>
<svg id="Layer_2" data-name="Layer 2" xmlns="http://www.w3.org/2000/svg" viewBox="0 0 150 129.45">
  <defs>
    <style>
      .cls-1 {
        fill: #a6cce6;
        stroke-width: 0px;
      }
    </style>
  </defs>
  <g id="Layer_2-2" data-name="Layer 2">
    <path class="cls-1" d="M60.57,28.19c-9.78-.95-17.27,1.35-22.48,6.86-5.2,5.52-7.65,13.01-7.33,22.48v3.79c0,1.26.15,2.53.47,3.79h33.12v64.35H0v-64.35C0,41.76,5.44,24.4,16.33,13.05,27.21,1.69,43.22-2.25,64.35,1.22l-3.79,26.97ZM146.21,28.19c-9.78-.95-17.27,1.35-22.48,6.86-5.2,5.52-7.65,13.01-7.33,22.48v3.79c0,1.26.16,2.53.47,3.79h33.12v64.35h-64.35v-64.35c0-23.34,5.44-40.69,16.33-52.05,10.88-11.36,26.89-15.3,48.03-11.83l-3.79,26.97Z"/>
  </g>
</svg>