<?xml version="1.0" encoding="UTF-8"?>
<svg id="Layer_2" data-name="Layer 2" xmlns="http://www.w3.org/2000/svg" xmlns:xlink="http://www.w3.org/1999/xlink" viewBox="0 0 1920.3 804.06">
  <defs>
    <style>
      .cls-1 {
        fill: #eee;
      }

      .cls-1, .cls-2, .cls-3, .cls-4, .cls-5, .cls-6, .cls-7, .cls-8, .cls-9, .cls-10, .cls-11, .cls-12, .cls-13, .cls-14 {
        stroke-width: 0px;
      }

      .cls-15 {
        clip-path: url(#clippath);
      }

      .cls-2 {
        fill: none;
      }

      .cls-3 {
        fill: #98bad2;
      }

      .cls-4 {
        fill: url(#linear-gradient);
      }

      .cls-5 {
        fill: #cdcdcd;
      }

      .cls-6 {
        fill: #e9e9e9;
      }

      .cls-7 {
        fill: #0079a2;
      }

      .cls-8 {
        fill: #9bbed7;
      }

      .cls-9 {
        fill: #86a4b9;
      }

      .cls-16 {
        opacity: .3;
      }

      .cls-17, .cls-10, .cls-11 {
        opacity: .5;
      }

      .cls-18 {
        opacity: .7;
      }

      .cls-10 {
        fill: url(#linear-gradient-3);
      }

      .cls-11 {
        fill: url(#linear-gradient-4);
      }

      .cls-12 {
        fill: url(#linear-gradient-2);
      }

      .cls-19 {
        isolation: isolate;
      }

      .cls-13 {
        fill: #fff;
      }

      .cls-14 {
        fill: #a6cce6;
      }
    </style>
    <clipPath id="clippath">
      <rect class="cls-2" y="119.29" width="1080" height="600"/>
    </clipPath>
    <linearGradient id="linear-gradient" x1="-9560.3" y1="719.29" x2="-9560.3" y2="313.37" gradientTransform="translate(-8600) rotate(-180) scale(1 -1)" gradientUnits="userSpaceOnUse">
      <stop offset="0" stop-color="#000"/>
      <stop offset="1" stop-color="#0079a2"/>
    </linearGradient>
    <linearGradient id="linear-gradient-2" x1="960.15" y1="719.29" x2="960.15" y2="462.22" gradientTransform="matrix(1,0,0,1,0,0)" xlink:href="#linear-gradient"/>
    <linearGradient id="linear-gradient-3" x1="960.15" y1="719.29" x2="960.15" y2="462.22" gradientUnits="userSpaceOnUse">
      <stop offset=".43" stop-color="#0079a2"/>
      <stop offset="1" stop-color="#000"/>
    </linearGradient>
    <linearGradient id="linear-gradient-4" x1="960.3" x2="960.3" y2="0" xlink:href="#linear-gradient-3"/>
  </defs>
  <g id="Layer_1-2" data-name="Layer 1">
    <g class="cls-15">
      <g>
        <polygon class="cls-4" points=".3 719.29 1920.3 719.29 340.27 572.39 .3 313.37 .3 719.29"/>
        <g>
          <polygon class="cls-12" points="1920.15 719.29 .15 719.29 .83 462.22 340.15 573.39 342.34 572.6 1920.15 719.29"/>
          <polygon class="cls-10" points="1920.15 719.29 .15 719.29 .83 462.22 340.15 573.39 342.34 572.6 1920.15 719.29"/>
        </g>
        <g>
          <polygon class="cls-7" points="1920.3 0 1920.3 719.29 .3 719.29 0 697.15 .36 697.02 1920.3 0"/>
          <polygon class="cls-11" points="1920.3 0 1920.3 719.29 .3 719.29 .36 697.02 1920.3 0"/>
        </g>
        <g>
          <g class="cls-16">
            <g>
              <path class="cls-14" d="M787.02,490l206.3,133.97-197.09,71.06-283.31-183.99,66.97-24.15,229.11,148.78,63.14-22.77-152.09-98.77,66.98-24.15ZM796.43,694.38l195.52-70.5-205.15-133.23-65.41,23.59,152.1,98.77-64.7,23.33-229.11-148.78-65.41,23.59,282.16,183.24"/>
              <path class="cls-13" d="M969.02,346.59l283.31,183.99-93.84,33.84-54.22-35.21,26.47-9.54-229.1-148.78,67.37-24.29ZM1158.7,563.75l92.28-33.27-282.16-183.24-65.81,23.73,229.1,148.78-26.47,9.54,53.06,34.46"/>
              <path class="cls-13" d="M846.21,390.87l283.31,183.99-69.64,25.11-229.1-148.78-133.55,48.15-54.21-35.2,203.19-73.26ZM1060.09,599.31l68.07-24.55-282.16-183.24-201.62,72.7,53.06,34.46,133.55-48.15,229.1,148.78"/>
            </g>
          </g>
          <g class="cls-17">
            <g>
              <g class="cls-19">
                <polygon class="cls-1" points="968.33 262.38 968.92 346.81 903.12 370.54 902.53 286.1 968.33 262.38"/>
                <polygon class="cls-5" points="1250.49 445.61 1251.08 530.05 968.92 346.81 968.33 262.38 1250.49 445.61"/>
                <polygon class="cls-5" points="1130.27 434.79 1130.86 519.22 901.76 370.45 901.17 286.01 1130.27 434.79"/>
                <polygon class="cls-1" points="1131.63 434.88 1132.22 519.32 1105.74 528.86 1105.15 444.43 1131.63 434.88"/>
                <path class="cls-6" d="M968.54,261.72l283.31,183.99-93.84,33.84-54.22-35.21,26.47-9.54-229.1-148.78,67.37-24.29ZM1158.21,478.89l92.28-33.27-282.16-183.24-65.8,23.73,229.1,148.78-26.48,9.55,53.06,34.46"/>
                <polygon class="cls-1" points="1251.85 445.71 1252.44 530.14 1158.6 563.98 1158.01 479.54 1251.85 445.71"/>
                <polygon class="cls-5" points="1158.01 479.54 1158.6 563.98 1104.39 528.77 1103.8 444.33 1158.01 479.54"/>
              </g>
              <g class="cls-19">
                <polygon class="cls-1" points="845.52 306.66 846.11 391.09 644.48 463.8 643.89 379.36 845.52 306.66"/>
                <polygon class="cls-1" points="830.31 366.32 830.9 450.76 697.34 498.91 696.75 414.47 830.31 366.32"/>
                <polygon class="cls-5" points="696.75 414.47 697.34 498.91 643.13 463.7 642.54 379.27 696.75 414.47"/>
                <polygon class="cls-8" points="579.19 402.69 579.78 487.12 514.37 510.71 513.78 426.27 579.19 402.69"/>
                <polygon class="cls-8" points="786.32 405.79 786.91 490.23 721.5 513.81 720.91 429.38 786.32 405.79"/>
                <polygon class="cls-5" points="1127.68 489.9 1128.27 574.33 846.11 391.09 845.52 306.66 1127.68 489.9"/>
                <polygon class="cls-1" points="1129.03 489.99 1129.62 574.43 1059.99 599.53 1059.4 515.1 1129.03 489.99"/>
                <polygon class="cls-5" points="1059.4 515.1 1059.99 599.53 830.9 450.76 830.31 366.32 1059.4 515.1"/>
                <path class="cls-6" d="M845.72,306l283.31,183.99-69.63,25.11-229.1-148.78-133.55,48.15-54.22-35.21,203.18-73.26ZM1059.61,514.44l68.07-24.55-282.16-183.24-201.63,72.7,53.06,34.46,133.56-48.16,229.1,148.78"/>
                <polygon class="cls-9" points="991.46 539.01 992.05 623.45 786.91 490.23 786.32 405.79 991.46 539.01"/>
                <polygon class="cls-9" points="871.65 528.05 872.24 612.49 720.15 513.72 719.56 429.28 871.65 528.05"/>
                <polygon class="cls-9" points="808.3 551.47 808.89 635.91 579.78 487.12 579.19 402.69 808.3 551.47"/>
                <polygon class="cls-8" points="873 528.14 873.59 612.58 808.89 635.91 808.3 551.47 873 528.14"/>
                <path class="cls-3" d="M786.53,405.13l206.3,133.97-197.08,71.06-283.31-183.99,66.97-24.15,229.11,148.78,63.14-22.77-152.09-98.77,66.97-24.15ZM795.94,609.51l195.52-70.5-205.14-133.22-65.41,23.59,152.09,98.77-64.7,23.33-229.11-148.78-65.41,23.59,282.16,183.24"/>
                <polygon class="cls-9" points="795.74 610.16 796.33 694.6 513.02 510.61 512.43 426.18 795.74 610.16"/>
                <polygon class="cls-8" points="992.82 539.1 993.41 623.54 796.33 694.6 795.74 610.16 992.82 539.1"/>
              </g>
            </g>
          </g>
          <g class="cls-18">
            <g>
              <g class="cls-19">
                <polygon class="cls-13" points="1131.24 433.27 1131.25 434.04 902.15 285.26 902.15 284.5 1131.24 433.27"/>
                <polygon class="cls-13" points="1251.47 444.1 1158.41 477.65 1104.77 442.82 1131.24 433.27 902.15 284.5 968.73 260.49 1251.47 444.1"/>
                <polygon class="cls-13" points="1251.47 444.1 1251.48 444.87 1158.42 478.42 1158.41 477.65 1251.47 444.1"/>
                <polygon class="cls-13" points="1158.41 477.65 1158.42 478.42 1104.78 443.59 1104.77 442.82 1158.41 477.65"/>
              </g>
              <g class="cls-19">
                <polygon class="cls-13" points="830.71 364.43 830.71 365.2 697.16 413.35 697.15 412.59 830.71 364.43"/>
                <polygon class="cls-13" points="697.15 412.59 697.16 413.35 643.52 378.52 643.51 377.75 697.15 412.59"/>
                <polygon class="cls-13" points="1128.65 488.38 1059.8 513.21 830.71 364.43 697.15 412.59 643.51 377.75 845.91 304.77 1128.65 488.38"/>
                <polygon class="cls-13" points="1128.65 488.38 1128.66 489.15 1059.81 513.98 1059.8 513.21 1128.65 488.38"/>
                <polygon class="cls-13" points="1059.8 513.21 1059.81 513.98 830.71 365.2 830.71 364.43 1059.8 513.21"/>
                <polygon class="cls-14" points="872.62 526.54 872.63 527.3 720.54 428.53 720.53 427.77 872.62 526.54"/>
                <polygon class="cls-14" points="796.13 608.28 796.14 609.05 513.4 425.44 513.4 424.67 796.13 608.28"/>
                <polygon class="cls-14" points="992.44 537.5 992.45 538.26 796.14 609.05 796.13 608.28 992.44 537.5"/>
                <polygon class="cls-14" points="992.44 537.5 796.13 608.28 513.4 424.67 579.59 400.8 808.7 549.58 811.34 548.63 869.97 527.48 872.62 526.54 720.53 427.77 786.72 403.9 992.44 537.5"/>
              </g>
            </g>
          </g>
        </g>
      </g>
    </g>
  </g>
</svg>