<?xml version="1.0" encoding="UTF-8"?>
<svg id="Layer_2" data-name="Layer 2" xmlns="http://www.w3.org/2000/svg" viewBox="0 0 337 100">
  <defs>
    <style>
      .cls-1 {
        fill: none;
        stroke: #fff;
        stroke-miterlimit: 10;
        stroke-width: .3px;
      }

      .cls-2 {
        fill: #00739b;
      }

      .cls-2, .cls-3, .cls-4, .cls-5 {
        stroke-width: 0px;
      }

      .cls-3 {
        fill: #0079a2;
      }

      .cls-6 {
        opacity: .7;
      }

      .cls-4 {
        fill: #fff;
      }

      .cls-5 {
        fill: #a6cce6;
      }
    </style>
  </defs>
  <rect class="cls-3" x="0" y=".01" width="99.77" height="99.77"/>
  <line class="cls-1" y1="21.43" x2="99.77" y2="21.43"/>
  <line class="cls-1" x1=".14" y1="78.98" x2="99.77" y2="78.98"/>
  <line class="cls-1" x1="34.09" y1="45.93" x2="99.79" y2="45.93"/>
  <line class="cls-1" y1="70.44" x2="56.72" y2="70.44"/>
  <rect class="cls-2" x="108.46" width="228.19" height="100"/>
  <g>
    <path class="cls-4" d="M131.33,41.78V15.35h9.98c6.36,0,10.53,2.81,10.53,8.66s-4.21,8.85-10.49,8.85h-3.74v8.93h-6.28ZM140.84,27.9c2.81,0,4.64-1.25,4.64-3.9,0-2.85-1.95-3.74-5.07-3.74h-2.81v7.64h3.24Z"/>
    <path class="cls-4" d="M173.97,41.78l-4.83-9.47h-3.66v9.47h-6.28V15.35h9.94c6.39,0,10.57,2.85,10.57,8.3,0,3.55-1.75,6.12-4.64,7.41l5.46,10.72h-6.55ZM168.75,27.35c2.81,0,4.6-1.21,4.6-3.7,0-2.22-1.71-3.39-4.6-3.39h-3.27v7.1h3.27Z"/>
    <path class="cls-4" d="M186.09,28.56c0-8.46,5.07-13.68,13.14-13.68s13.1,5.22,13.1,13.68-5.07,13.72-13.1,13.72-13.14-5.15-13.14-13.72ZM205.98,28.56c0-5.34-2.3-8.58-6.75-8.58s-6.78,3.24-6.78,8.58,2.34,8.5,6.78,8.5,6.75-3.16,6.75-8.5Z"/>
    <path class="cls-4" d="M217.24,37.22h3.16c2.42,0,3.2-1.36,3.2-4.56V15.35h6.28v17.19c0,4.09-.16,9.75-6.9,9.75-.43,0-2.65,0-5.73-.55v-4.52Z"/>
    <path class="cls-4" d="M239.11,41.78V15.35h16.41v4.99h-10.14v5.69h9.4v4.72h-9.4v5.97h10.8v5.07h-17.08Z"/>
    <path class="cls-4" d="M286.83,32.93c-1.29,5.85-5.54,9.36-11.62,9.36-7.99,0-12.98-5.15-12.98-13.72s5.07-13.68,12.98-13.68c6.2,0,10.49,3.55,11.7,9.51h-6.43c-.78-2.81-2.57-4.41-5.26-4.41-4.33,0-6.63,3.24-6.63,8.58s2.3,8.5,6.63,8.5c2.65,0,4.41-1.48,5.15-4.13h6.47Z"/>
    <path class="cls-4" d="M299.49,41.78v-21.4h-7.64v-5.03h21.56v5.03h-7.64v21.4h-6.28Z"/>
    <path class="cls-4" d="M143.39,54.16c-.23-3.28-2.79-3.87-4.84-3.87s-4.26.81-4.26,2.92c0,5.49,12.93,2.08,12.93,10.33,0,3.7-2.89,6.5-8.71,6.5-2.37,0-8.35-.75-8.64-7.18h3.67c.13,3.28,2.73,4.29,5.3,4.29s4.61-.91,4.61-3.15c0-5.59-12.9-1.95-12.9-10.49,0-4.29,4.13-6.04,8.35-6.04,2.7,0,7.86.94,8.15,6.69h-3.67Z"/>
    <path class="cls-4" d="M156.44,69.62v-18.81h-6.85v-2.99h17.38v2.99h-6.86v18.81h-3.67Z"/>
    <path class="cls-4" d="M183.47,69.62l-4.39-8.58h-4.32v8.58h-3.67v-21.8h7.67c4.97,0,8.12,2.21,8.12,6.46,0,2.96-1.66,5.17-4.29,6.08l4.74,9.26h-3.87ZM178.7,58.09c2.7,0,4.42-1.27,4.42-3.8,0-2.31-1.59-3.48-4.48-3.48h-3.87v7.28h3.93Z"/>
    <path class="cls-4" d="M205.11,47.82h3.61v13.74c0,5.62-3.61,8.48-8.84,8.48s-8.8-2.86-8.8-8.48v-13.74h3.67v13.61c0,3.7,2.11,5.46,5.13,5.46,3.22,0,5.23-1.75,5.23-5.46v-13.61Z"/>
    <path class="cls-4" d="M232.43,62.87c-1.01,4.52-4.29,7.18-9.06,7.18-6.34,0-10.23-4.26-10.23-11.31s4.03-11.27,10.23-11.27c4.84,0,8.09,2.63,9.06,7.05h-3.8c-.65-2.57-2.5-4-5.26-4-4.22,0-6.47,3.09-6.47,8.22s2.24,8.19,6.47,8.19c2.86,0,4.65-1.43,5.3-4.06h3.77Z"/>
    <path class="cls-4" d="M241.58,69.62v-18.81h-6.85v-2.99h17.38v2.99h-6.85v18.81h-3.67Z"/>
    <path class="cls-4" d="M270.07,47.82h3.61v13.74c0,5.62-3.61,8.48-8.84,8.48s-8.8-2.86-8.8-8.48v-13.74h3.67v13.61c0,3.7,2.11,5.46,5.13,5.46,3.22,0,5.23-1.75,5.23-5.46v-13.61Z"/>
    <path class="cls-4" d="M291.35,69.62l-4.39-8.58h-4.32v8.58h-3.67v-21.8h7.67c4.97,0,8.12,2.21,8.12,6.46,0,2.96-1.66,5.17-4.29,6.08l4.74,9.26h-3.87ZM286.57,58.09c2.7,0,4.42-1.27,4.42-3.8,0-2.31-1.59-3.48-4.48-3.48h-3.87v7.28h3.93Z"/>
    <path class="cls-4" d="M299.79,69.62v-21.8h13.13v2.99h-9.45v6.24h8.84v2.89h-8.84v6.63h9.75v3.05h-13.42Z"/>
  </g>
  <line class="cls-1" y1="30.14" x2="72.91" y2="30.14"/>
  <line class="cls-1" x1="25.92" y1=".23" x2="25.92" y2="99.78"/>
  <line class="cls-1" x1="74.46" y1=".33" x2="74.46" y2="99.77"/>
  <line class="cls-1" x1=".03" y1="62.67" x2="56.75" y2="62.67"/>
  <g class="cls-6">
    <path class="cls-4" d="M137.26,82.24c-.41,1.86-1.76,2.95-3.73,2.95-2.6,0-4.21-1.75-4.21-4.65s1.66-4.63,4.21-4.63c1.99,0,3.33,1.08,3.73,2.9h-1.56c-.27-1.06-1.03-1.64-2.16-1.64-1.74,0-2.66,1.27-2.66,3.38s.92,3.37,2.66,3.37c1.18,0,1.91-.59,2.18-1.67h1.55Z"/>
    <path class="cls-4" d="M140.13,80.54c0-2.87,1.66-4.63,4.29-4.63s4.29,1.75,4.29,4.63-1.66,4.65-4.29,4.65-4.29-1.76-4.29-4.65ZM147.16,80.54c0-2.11-.96-3.38-2.74-3.38s-2.74,1.27-2.74,3.38.93,3.37,2.74,3.37,2.74-1.27,2.74-3.37Z"/>
    <path class="cls-4" d="M157.8,85.02l-4.3-6.64v6.64h-1.51v-8.96h1.6l4.38,6.78v-6.78h1.51v8.96h-1.68Z"/>
    <path class="cls-4" d="M168.13,78.66c-.09-1.35-1.15-1.59-1.99-1.59s-1.75.33-1.75,1.2c0,2.26,5.32.85,5.32,4.25,0,1.52-1.19,2.67-3.58,2.67-.98,0-3.43-.31-3.55-2.95h1.51c.05,1.35,1.12,1.76,2.18,1.76s1.9-.37,1.9-1.3c0-2.3-5.3-.8-5.3-4.31,0-1.76,1.7-2.48,3.43-2.48,1.11,0,3.23.39,3.35,2.75h-1.51Z"/>
    <path class="cls-4" d="M178.52,76.06h1.48v5.65c0,2.31-1.48,3.49-3.63,3.49s-3.62-1.18-3.62-3.49v-5.65h1.51v5.6c0,1.52.87,2.24,2.11,2.24,1.32,0,2.15-.72,2.15-2.24v-5.6Z"/>
    <path class="cls-4" d="M183.57,85.02v-8.96h1.51v7.71h3.94v1.26h-5.45Z"/>
    <path class="cls-4" d="M192.61,85.02v-7.73h-2.82v-1.23h7.14v1.23h-2.82v7.73h-1.51Z"/>
    <path class="cls-4" d="M199.75,85.02v-8.96h1.51v8.96h-1.51Z"/>
    <path class="cls-4" d="M210.71,85.02l-4.3-6.64v6.64h-1.51v-8.96h1.6l4.38,6.78v-6.78h1.51v8.96h-1.68Z"/>
    <path class="cls-4" d="M222.71,85.02l-.16-1.51c-.59,1.22-1.75,1.68-2.72,1.68-2.54,0-4.15-1.75-4.15-4.65s1.66-4.63,4.23-4.63c1.99,0,3.3,1.06,3.66,2.86h-1.55c-.25-1.02-.98-1.6-2.11-1.6-1.76,0-2.68,1.27-2.68,3.38s.92,3.43,2.7,3.43c1.28,0,2.18-.91,2.18-2.46v-.15h-2.1v-1.06h3.69v4.7h-.98Z"/>
    <path class="cls-4" d="M232.45,85.02v-8.96h5.4v1.23h-3.89v2.56h3.63v1.19h-3.63v2.72h4.01v1.26h-5.52Z"/>
    <path class="cls-4" d="M246.99,85.02l-4.3-6.64v6.64h-1.51v-8.96h1.6l4.38,6.78v-6.78h1.51v8.96h-1.68Z"/>
    <path class="cls-4" d="M258.99,85.02l-.16-1.51c-.59,1.22-1.75,1.68-2.72,1.68-2.54,0-4.15-1.75-4.15-4.65s1.66-4.63,4.23-4.63c1.99,0,3.3,1.06,3.66,2.86h-1.55c-.25-1.02-.98-1.6-2.11-1.6-1.76,0-2.68,1.27-2.68,3.38s.92,3.43,2.7,3.43c1.28,0,2.18-.91,2.18-2.46v-.15h-2.1v-1.06h3.69v4.7h-.98Z"/>
    <path class="cls-4" d="M263.37,85.02v-8.96h1.51v8.96h-1.51Z"/>
    <path class="cls-4" d="M274.33,85.02l-4.3-6.64v6.64h-1.51v-8.96h1.6l4.38,6.78v-6.78h1.51v8.96h-1.68Z"/>
    <path class="cls-4" d="M279.66,85.02v-8.96h5.4v1.23h-3.89v2.56h3.63v1.19h-3.63v2.72h4.01v1.26h-5.52Z"/>
    <path class="cls-4" d="M288.39,85.02v-8.96h5.4v1.23h-3.89v2.56h3.63v1.19h-3.63v2.72h4.01v1.26h-5.52Z"/>
    <path class="cls-4" d="M302.21,85.02l-1.8-3.53h-1.78v3.53h-1.51v-8.96h3.15c2.04,0,3.34.91,3.34,2.66,0,1.22-.68,2.12-1.76,2.5l1.95,3.81h-1.59ZM300.25,80.28c1.11,0,1.82-.52,1.82-1.56,0-.95-.65-1.43-1.84-1.43h-1.59v2.99h1.62Z"/>
    <path class="cls-4" d="M311.81,78.66c-.09-1.35-1.15-1.59-1.99-1.59s-1.75.33-1.75,1.2c0,2.26,5.31.85,5.31,4.25,0,1.52-1.19,2.67-3.58,2.67-.97,0-3.43-.31-3.55-2.95h1.51c.05,1.35,1.12,1.76,2.18,1.76s1.9-.37,1.9-1.3c0-2.3-5.3-.8-5.3-4.31,0-1.76,1.7-2.48,3.43-2.48,1.11,0,3.23.39,3.35,2.75h-1.51Z"/>
  </g>
  <line class="cls-1" y1="54.01" x2="99.78" y2="54.01"/>
  <polygon class="cls-5" points="64.79 53.85 38.95 53.85 38.95 62.82 64.68 62.82 64.79 70.14 25.7 70.14 25.7 79.12 74.64 79.12 74.64 78.31 74.64 70.14 74.64 53.85 67.53 53.85 64.79 53.85"/>
  <g>
    <polygon class="cls-4" points="64.79 30.34 64.79 30.41 64.79 33.55 74.64 33.55 74.64 21.43 72.2 21.43 64.79 21.43 25.7 21.43 25.7 23.1 25.7 23.1 25.7 30.34 64.79 30.34"/>
    <polygon class="cls-4" points="64.79 36.76 64.79 36.92 35.55 36.92 35.55 36.76 25.7 36.76 25.7 44.13 25.7 45.89 25.7 62.82 25.7 62.82 35.55 62.82 35.55 53.85 35.55 46.24 35.55 45.89 64.79 45.89 67.53 45.89 74.64 45.89 74.64 36.76 64.79 36.76"/>
  </g>
  <line class="cls-1" y1="36.92" x2="99.77" y2="36.92"/>
</svg>