<?xml version="1.0" encoding="UTF-8"?>
<svg id="Layer_2" data-name="Layer 2" xmlns="http://www.w3.org/2000/svg" viewBox="0 0 337 100">
  <defs>
    <style>
      .cls-1 {
        fill: #0079a2;
      }

      .cls-1, .cls-2, .cls-3 {
        stroke-width: 0px;
      }

      .cls-4 {
        fill: none;
        stroke: #fff;
        stroke-miterlimit: 10;
        stroke-width: .3px;
      }

      .cls-2 {
        fill: #fff;
      }

      .cls-3 {
        fill: #a6cce6;
      }
    </style>
  </defs>
  <rect class="cls-1" width="100" height="100"/>
  <line class="cls-4" y1="21.47" x2="100" y2="21.47"/>
  <line class="cls-4" x1=".14" y1="79.15" x2="100" y2="79.15"/>
  <line class="cls-4" x1="34.17" y1="46.03" x2="100.02" y2="46.03"/>
  <line class="cls-4" y1="70.59" x2="56.85" y2="70.59"/>
  <g>
    <path class="cls-2" d="M131.63,41.86V15.37h10c6.37,0,10.55,2.81,10.55,8.68s-4.22,8.87-10.51,8.87h-3.75v8.95h-6.29ZM141.17,27.95c2.81,0,4.65-1.25,4.65-3.91,0-2.85-1.95-3.75-5.08-3.75h-2.81v7.66h3.24Z"/>
    <path class="cls-2" d="M174.38,41.86l-4.85-9.5h-3.67v9.5h-6.29V15.37h9.96c6.41,0,10.59,2.85,10.59,8.32,0,3.56-1.76,6.14-4.65,7.42l5.47,10.75h-6.56ZM169.14,27.41c2.81,0,4.61-1.21,4.61-3.71,0-2.23-1.72-3.4-4.61-3.4h-3.28v7.11h3.28Z"/>
    <path class="cls-2" d="M186.53,28.62c0-8.48,5.08-13.72,13.17-13.72s13.13,5.24,13.13,13.72-5.08,13.76-13.13,13.76-13.17-5.16-13.17-13.76ZM206.46,28.62c0-5.35-2.31-8.6-6.76-8.6s-6.8,3.24-6.8,8.6,2.34,8.52,6.8,8.52,6.76-3.17,6.76-8.52Z"/>
    <path class="cls-2" d="M217.74,37.29h3.17c2.42,0,3.21-1.37,3.21-4.57V15.37h6.29v17.23c0,4.1-.16,9.77-6.92,9.77-.43,0-2.66,0-5.74-.55v-4.53Z"/>
    <path class="cls-2" d="M239.66,41.86V15.37h16.45v5h-10.16v5.71h9.42v4.73h-9.42v5.98h10.82v5.08h-17.12Z"/>
    <path class="cls-2" d="M287.49,32.99c-1.29,5.86-5.55,9.38-11.65,9.38-8.01,0-13.01-5.16-13.01-13.76s5.08-13.72,13.01-13.72c6.21,0,10.51,3.56,11.72,9.54h-6.45c-.78-2.81-2.58-4.42-5.28-4.42-4.34,0-6.64,3.24-6.64,8.6s2.31,8.52,6.64,8.52c2.66,0,4.42-1.48,5.16-4.14h6.49Z"/>
    <path class="cls-2" d="M300.18,41.86v-21.45h-7.66v-5.04h21.61v5.04h-7.66v21.45h-6.29Z"/>
    <path class="cls-2" d="M143.72,54.27c-.23-3.29-2.8-3.88-4.85-3.88s-4.27.81-4.27,2.93c0,5.5,12.96,2.08,12.96,10.35,0,3.71-2.9,6.51-8.73,6.51-2.38,0-8.37-.75-8.66-7.2h3.68c.13,3.29,2.74,4.3,5.31,4.3s4.62-.91,4.62-3.16c0-5.6-12.93-1.95-12.93-10.52,0-4.3,4.14-6.06,8.37-6.06,2.7,0,7.88.94,8.17,6.71h-3.68Z"/>
    <path class="cls-2" d="M156.81,69.77v-18.85h-6.87v-3h17.42v3h-6.87v18.85h-3.68Z"/>
    <path class="cls-2" d="M183.9,69.77l-4.4-8.6h-4.33v8.6h-3.68v-21.85h7.68c4.98,0,8.14,2.21,8.14,6.48,0,2.96-1.66,5.18-4.3,6.09l4.75,9.28h-3.88ZM179.11,58.21c2.7,0,4.43-1.27,4.43-3.81,0-2.31-1.6-3.48-4.49-3.48h-3.87v7.29h3.94Z"/>
    <path class="cls-2" d="M205.58,47.92h3.61v13.77c0,5.63-3.61,8.5-8.86,8.5s-8.82-2.87-8.82-8.5v-13.77h3.68v13.64c0,3.71,2.12,5.47,5.14,5.47,3.22,0,5.24-1.76,5.24-5.47v-13.64Z"/>
    <path class="cls-2" d="M232.96,63c-1.01,4.53-4.3,7.2-9.08,7.2-6.35,0-10.26-4.27-10.26-11.33s4.04-11.3,10.26-11.3c4.85,0,8.11,2.64,9.08,7.07h-3.81c-.65-2.57-2.51-4-5.27-4-4.23,0-6.48,3.09-6.48,8.24s2.25,8.21,6.48,8.21c2.87,0,4.66-1.43,5.31-4.07h3.78Z"/>
    <path class="cls-2" d="M242.14,69.77v-18.85h-6.87v-3h17.42v3h-6.87v18.85h-3.68Z"/>
    <path class="cls-2" d="M270.7,47.92h3.61v13.77c0,5.63-3.61,8.5-8.86,8.5s-8.82-2.87-8.82-8.5v-13.77h3.68v13.64c0,3.71,2.12,5.47,5.14,5.47,3.22,0,5.24-1.76,5.24-5.47v-13.64Z"/>
    <path class="cls-2" d="M292.02,69.77l-4.4-8.6h-4.33v8.6h-3.68v-21.85h7.68c4.98,0,8.14,2.21,8.14,6.48,0,2.96-1.66,5.18-4.3,6.09l4.75,9.28h-3.88ZM287.24,58.21c2.7,0,4.43-1.27,4.43-3.81,0-2.31-1.6-3.48-4.49-3.48h-3.87v7.29h3.94Z"/>
    <path class="cls-2" d="M300.49,69.77v-21.85h13.16v3h-9.48v6.25h8.86v2.9h-8.86v6.64h9.77v3.06h-13.45Z"/>
  </g>
  <line class="cls-4" y1="30.2" x2="73.08" y2="30.2"/>
  <line class="cls-4" x1="25.98" y1=".22" x2="25.98" y2="100"/>
  <line class="cls-4" x1="74.63" y1=".32" x2="74.63" y2="99.99"/>
  <line class="cls-4" x1=".03" y1="62.81" x2="56.88" y2="62.81"/>
  <g>
    <path class="cls-3" d="M137.58,82.42c-.42,1.86-1.77,2.96-3.73,2.96-2.61,0-4.22-1.75-4.22-4.66s1.66-4.64,4.22-4.64c1.99,0,3.33,1.08,3.73,2.9h-1.57c-.27-1.06-1.03-1.65-2.17-1.65-1.74,0-2.66,1.27-2.66,3.39s.92,3.37,2.66,3.37c1.18,0,1.91-.59,2.18-1.67h1.55Z"/>
    <path class="cls-3" d="M140.46,80.72c0-2.88,1.66-4.64,4.3-4.64s4.3,1.75,4.3,4.64-1.66,4.66-4.3,4.66-4.3-1.77-4.3-4.66ZM147.5,80.72c0-2.11-.96-3.39-2.74-3.39s-2.74,1.27-2.74,3.39.94,3.37,2.74,3.37,2.74-1.27,2.74-3.37Z"/>
    <path class="cls-3" d="M158.16,85.2l-4.31-6.65v6.65h-1.51v-8.98h1.61l4.39,6.8v-6.8h1.51v8.98h-1.69Z"/>
    <path class="cls-3" d="M168.52,78.83c-.09-1.35-1.15-1.59-1.99-1.59s-1.75.33-1.75,1.2c0,2.26,5.33.86,5.33,4.26,0,1.53-1.19,2.68-3.59,2.68-.98,0-3.44-.31-3.56-2.96h1.51c.05,1.35,1.12,1.77,2.18,1.77s1.9-.37,1.9-1.3c0-2.3-5.31-.8-5.31-4.32,0-1.77,1.7-2.49,3.44-2.49,1.11,0,3.24.39,3.36,2.76h-1.51Z"/>
    <path class="cls-3" d="M178.93,76.22h1.49v5.66c0,2.32-1.49,3.49-3.64,3.49s-3.63-1.18-3.63-3.49v-5.66h1.51v5.61c0,1.53.87,2.25,2.11,2.25,1.32,0,2.15-.72,2.15-2.25v-5.61Z"/>
    <path class="cls-3" d="M183.99,85.2v-8.98h1.51v7.72h3.95v1.26h-5.46Z"/>
    <path class="cls-3" d="M193.05,85.2v-7.75h-2.82v-1.23h7.16v1.23h-2.82v7.75h-1.51Z"/>
    <path class="cls-3" d="M200.21,85.2v-8.98h1.51v8.98h-1.51Z"/>
    <path class="cls-3" d="M211.2,85.2l-4.31-6.65v6.65h-1.51v-8.98h1.61l4.39,6.8v-6.8h1.51v8.98h-1.69Z"/>
    <path class="cls-3" d="M223.23,85.2l-.16-1.51c-.59,1.22-1.75,1.69-2.73,1.69-2.54,0-4.16-1.75-4.16-4.66s1.66-4.64,4.24-4.64c1.99,0,3.31,1.06,3.67,2.86h-1.55c-.25-1.02-.98-1.61-2.11-1.61-1.77,0-2.69,1.27-2.69,3.39s.92,3.44,2.7,3.44c1.28,0,2.18-.91,2.18-2.46v-.15h-2.1v-1.06h3.69v4.71h-.98Z"/>
    <path class="cls-3" d="M232.98,85.2v-8.98h5.41v1.23h-3.9v2.57h3.64v1.19h-3.64v2.73h4.02v1.26h-5.53Z"/>
    <path class="cls-3" d="M247.56,85.2l-4.31-6.65v6.65h-1.51v-8.98h1.61l4.39,6.8v-6.8h1.51v8.98h-1.69Z"/>
    <path class="cls-3" d="M259.59,85.2l-.16-1.51c-.59,1.22-1.75,1.69-2.73,1.69-2.54,0-4.16-1.75-4.16-4.66s1.66-4.64,4.24-4.64c1.99,0,3.31,1.06,3.67,2.86h-1.55c-.25-1.02-.98-1.61-2.11-1.61-1.77,0-2.69,1.27-2.69,3.39s.92,3.44,2.7,3.44c1.28,0,2.18-.91,2.18-2.46v-.15h-2.1v-1.06h3.69v4.71h-.98Z"/>
    <path class="cls-3" d="M263.98,85.2v-8.98h1.51v8.98h-1.51Z"/>
    <path class="cls-3" d="M274.97,85.2l-4.31-6.65v6.65h-1.51v-8.98h1.61l4.39,6.8v-6.8h1.51v8.98h-1.69Z"/>
    <path class="cls-3" d="M280.3,85.2v-8.98h5.41v1.23h-3.9v2.57h3.64v1.19h-3.64v2.73h4.02v1.26h-5.53Z"/>
    <path class="cls-3" d="M289.06,85.2v-8.98h5.41v1.23h-3.9v2.57h3.64v1.19h-3.64v2.73h4.02v1.26h-5.53Z"/>
    <path class="cls-3" d="M302.91,85.2l-1.81-3.53h-1.78v3.53h-1.51v-8.98h3.16c2.05,0,3.35.91,3.35,2.66,0,1.22-.68,2.13-1.77,2.5l1.95,3.82h-1.59ZM300.94,80.45c1.11,0,1.82-.52,1.82-1.57,0-.95-.66-1.43-1.85-1.43h-1.59v3h1.62Z"/>
    <path class="cls-3" d="M312.53,78.83c-.09-1.35-1.15-1.59-1.99-1.59s-1.75.33-1.75,1.2c0,2.26,5.33.86,5.33,4.26,0,1.53-1.19,2.68-3.59,2.68-.98,0-3.44-.31-3.56-2.96h1.51c.05,1.35,1.12,1.77,2.18,1.77s1.9-.37,1.9-1.3c0-2.3-5.31-.8-5.31-4.32,0-1.77,1.7-2.49,3.44-2.49,1.11,0,3.24.39,3.36,2.76h-1.51Z"/>
  </g>
  <line class="cls-4" y1="54.12" x2="100.01" y2="54.12"/>
  <polygon class="cls-3" points="64.94 53.96 39.04 53.96 39.04 62.96 64.83 62.96 64.94 70.29 25.76 70.29 25.76 79.29 74.81 79.29 74.81 78.48 74.81 70.29 74.81 53.96 67.69 53.96 64.94 53.96"/>
  <g>
    <polygon class="cls-2" points="64.94 30.4 64.94 30.47 64.94 33.61 74.81 33.61 74.81 21.47 72.37 21.47 64.94 21.47 25.76 21.47 25.76 23.14 25.76 23.14 25.76 30.4 64.94 30.4"/>
    <polygon class="cls-2" points="64.94 36.83 64.94 36.99 35.63 36.99 35.63 36.83 25.76 36.83 25.76 44.22 25.76 45.98 25.76 62.96 25.76 62.96 35.63 62.96 35.63 53.96 35.63 46.34 35.63 45.98 64.94 45.98 67.69 45.98 74.81 45.98 74.81 36.83 64.94 36.83"/>
  </g>
  <line class="cls-4" y1="36.99" x2="100" y2="36.99"/>
</svg>