<?xml version="1.0" encoding="UTF-8"?>
<svg id="Layer_1" data-name="Layer 1" xmlns="http://www.w3.org/2000/svg" viewBox="0 0 1920 700">
  <defs>
    <style>
      .cls-1 {
        opacity: .57;
        stroke-dasharray: 0 0 50.59 15.85;
        stroke-width: 1.1px;
      }

      .cls-1, .cls-2, .cls-3, .cls-4, .cls-5, .cls-6, .cls-7, .cls-8, .cls-9, .cls-10, .cls-11, .cls-12, .cls-13, .cls-14, .cls-15, .cls-16, .cls-17, .cls-18, .cls-19, .cls-20, .cls-21, .cls-22, .cls-23, .cls-24, .cls-25, .cls-26, .cls-27, .cls-28, .cls-29, .cls-30, .cls-31, .cls-32, .cls-33, .cls-34, .cls-35, .cls-36, .cls-37, .cls-38, .cls-39, .cls-40, .cls-41, .cls-42, .cls-43 {
        fill: none;
        stroke: #fff;
        stroke-miterlimit: 10;
      }

      .cls-2 {
        opacity: .57;
        stroke-dasharray: 0 0 48.76 5.24;
        stroke-width: 1.01px;
      }

      .cls-3 {
        opacity: .71;
        stroke-dasharray: 0 0 60.95 6.34;
        stroke-width: 1.1px;
      }

      .cls-4 {
        opacity: .24;
        stroke-dasharray: 0 0 23.57 21.54;
        stroke-width: .95px;
      }

      .cls-5 {
        opacity: .29;
        stroke-dasharray: 0 0 24.38 3.05;
        stroke-width: .82px;
      }

      .cls-6 {
        opacity: .48;
        stroke-dasharray: 0 0 42.87 17.47;
        stroke-width: 1.06px;
      }

      .cls-7 {
        opacity: .43;
        stroke-dasharray: 0 0 39.01 18.28;
        stroke-width: 1.04px;
      }

      .cls-8 {
        opacity: .86;
        stroke-dasharray: 0 0 73.14 7.44;
        stroke-width: 1.19px;
      }

      .cls-9 {
        opacity: .67;
        stroke-dasharray: 0 0 58.31 14.22;
        stroke-width: 1.14px;
      }

      .cls-10 {
        opacity: .76;
        stroke-dasharray: 0 0 66.03 12.6;
        stroke-width: 1.18px;
      }

      .cls-11 {
        opacity: .52;
        stroke-dasharray: 0 0 44.7 4.88;
        stroke-width: .98px;
      }

      .cls-12 {
        opacity: .81;
        stroke-dasharray: 0 0 69.08 7.07;
        stroke-width: 1.16px;
      }

      .cls-13 {
        opacity: .14;
        stroke-dasharray: 0 0 12.19 1.95;
        stroke-width: .73px;
      }

      .cls-14 {
        opacity: .1;
        stroke-dasharray: 0 0 11.99 23.97;
        stroke-width: .89px;
      }

      .cls-15 {
        stroke-dasharray: 0 0 85.33 8.53;
        stroke-width: 1.28px;
      }

      .cls-16 {
        opacity: .95;
        stroke-dasharray: 0 0 81.47 9.35;
        stroke-width: 1.26px;
      }

      .cls-17 {
        opacity: .43;
        stroke-dasharray: 0 0 36.57 4.14;
        stroke-width: .91px;
      }

      .cls-18 {
        opacity: .81;
        stroke-dasharray: 0 0 69.89 11.78;
        stroke-width: 1.2px;
      }

      .cls-19 {
        opacity: .95;
        stroke-dasharray: 0 0 81.27 8.17;
        stroke-width: 1.25px;
      }

      .cls-20 {
        opacity: .38;
        stroke-dasharray: 0 0 32.51 3.78;
        stroke-width: .88px;
      }

      .cls-21 {
        opacity: .19;
        stroke-dasharray: 0 0 19.71 22.35;
        stroke-width: .93px;
      }

      .cls-22 {
        opacity: .1;
        stroke-dasharray: 0 0 8.13 1.58;
        stroke-width: .7px;
      }

      .cls-23 {
        opacity: .05;
        stroke-dasharray: 0 0 8.13 24.79;
        stroke-width: .87px;
      }

      .cls-24 {
        opacity: .48;
        stroke-dasharray: 0 0 40.63 4.51;
        stroke-width: .94px;
      }

      .cls-25 {
        opacity: .67;
        stroke-dasharray: 0 0 56.89 5.97;
        stroke-width: 1.07px;
      }

      .cls-26 {
        opacity: .33;
        stroke-dasharray: 0 0 31.29 19.91;
        stroke-width: 1px;
      }

      .cls-27 {
        opacity: .33;
        stroke-dasharray: 0 0 28.44 3.41;
        stroke-width: .85px;
      }

      .cls-28 {
        opacity: .62;
        stroke-dasharray: 0 0 52.82 5.61;
        stroke-width: 1.04px;
      }

      .cls-29 {
        opacity: .05;
        stroke-dasharray: 0 0 4.06 1.22;
        stroke-width: .67px;
      }

      .cls-44 {
        opacity: .2;
      }

      .cls-30 {
        opacity: .9;
        stroke-dasharray: 0 0 77.2 7.8;
        stroke-width: 1.22px;
      }

      .cls-31 {
        opacity: .24;
        stroke-dasharray: 0 0 20.32 2.68;
        stroke-width: .79px;
      }

      .cls-32 {
        stroke-dasharray: 0 0 0 .85;
        stroke-width: .64px;
      }

      .cls-32, .cls-36 {
        opacity: 0;
      }

      .cls-33 {
        opacity: .19;
        stroke-dasharray: 0 0 16.25 2.32;
        stroke-width: .76px;
      }

      .cls-34 {
        opacity: .9;
        stroke-dasharray: 0 0 77.61 10.16;
        stroke-width: 1.24px;
      }

      .cls-35 {
        opacity: .86;
        stroke-dasharray: 0 0 73.75 10.97;
        stroke-width: 1.22px;
      }

      .cls-36 {
        stroke-dasharray: 0 0 4.27 25.6;
        stroke-width: .85px;
      }

      .cls-37 {
        opacity: .76;
        stroke-dasharray: 0 0 65.01 6.7;
        stroke-width: 1.13px;
      }

      .cls-38 {
        opacity: .62;
        stroke-dasharray: 0 0 54.45 15.03;
        stroke-width: 1.12px;
      }

      .cls-39 {
        opacity: .14;
        stroke-dasharray: 0 0 15.85 23.16;
        stroke-width: .91px;
      }

      .cls-40 {
        opacity: .38;
        stroke-dasharray: 0 0 35.15 19.1;
        stroke-width: 1.02px;
      }

      .cls-41 {
        opacity: .71;
        stroke-dasharray: 0 0 62.17 13.41;
        stroke-width: 1.16px;
      }

      .cls-42 {
        opacity: .52;
        stroke-dasharray: 0 0 46.73 16.66;
        stroke-width: 1.08px;
      }

      .cls-43 {
        opacity: .29;
        stroke-dasharray: 0 0 27.43 20.72;
        stroke-width: .98px;
      }
    </style>
  </defs>
  <g class="cls-44">
    <path class="cls-32" d="M461.75,688.17h40.15s359.13,6.74,477.55-8.61c101.64-13.17,296.53-84.65,398.23-97.33,104.96-13.08,542.39,12.07,542.39,12.07"/>
    <path class="cls-29" d="M439.76,680.62l61.07,8.08s363.98-4.69,476.75-19.3c96.8-12.54,301.52-75.63,398.38-87.7,99.96-12.46,544.09.75,544.09.75"/>
    <path class="cls-22" d="M417.78,673.07l81.99,16.16s368.82-16.11,475.96-30c91.96-11.92,306.51-66.61,398.53-78.08,94.97-11.83,545.8-10.58,545.8-10.58"/>
    <path class="cls-13" d="M395.79,665.52l102.92,24.24s373.67-27.54,475.17-40.69c87.12-11.29,311.51-57.59,398.68-68.46,89.97-11.21,547.5-21.9,547.5-21.9"/>
    <path class="cls-33" d="M373.81,657.97l123.84,32.33s378.51-38.96,474.37-51.38c82.28-10.66,316.5-48.57,398.83-58.83,84.97-10.59,549.21-33.23,549.21-33.23"/>
    <path class="cls-31" d="M351.82,650.41l144.76,40.41s383.36-50.39,473.58-62.08c77.44-10.03,321.49-39.55,398.98-49.21,79.97-9.97,550.92-44.55,550.92-44.55"/>
    <path class="cls-5" d="M329.84,642.86l165.69,48.49s388.2-61.81,472.78-72.77c72.6-9.41,326.48-30.53,399.13-39.58,74.97-9.34,552.62-55.88,552.62-55.88"/>
    <path class="cls-27" d="M307.85,635.31l186.61,56.57s393.05-73.24,471.99-83.47c67.76-8.78,331.48-21.51,399.28-29.96,69.98-8.72,554.33-67.2,554.33-67.2"/>
    <path class="cls-20" d="M285.87,627.76l207.53,64.65s397.89-84.66,471.2-94.16c62.92-8.15,336.47-12.49,399.43-20.34,64.98-8.1,556.03-78.53,556.03-78.53"/>
    <path class="cls-17" d="M263.88,620.21l228.46,72.73s402.74-96.08,470.4-104.85c58.08-7.53,341.46-3.47,399.58-10.71,59.98-7.47,557.74-89.85,557.74-89.85"/>
    <path class="cls-24" d="M241.89,612.66l249.38,80.82s407.58-107.51,469.61-115.55c53.24-6.9,346.45,5.55,399.73-1.09,54.98-6.85,559.44-101.18,559.44-101.18"/>
    <path class="cls-11" d="M219.91,605.11l270.3,88.9s412.43-118.93,468.82-126.24c48.4-6.27,351.45,14.57,399.88,8.53,49.98-6.23,561.15-112.5,561.15-112.5"/>
    <path class="cls-2" d="M197.92,597.55l291.23,96.98s417.27-130.36,468.02-136.93c43.56-5.64,356.44,23.59,400.03,18.16,44.98-5.61,562.86-123.83,562.86-123.83"/>
    <path class="cls-28" d="M175.94,590l312.15,105.06s422.12-141.78,467.23-147.63c38.72-5.02,361.43,32.61,400.18,27.78,39.99-4.98,564.56-135.15,564.56-135.15"/>
    <path class="cls-25" d="M153.95,582.45l333.07,113.14s426.96-153.21,466.44-158.32c33.88-4.39,366.43,41.63,400.33,37.4,34.99-4.36,566.27-146.48,566.27-146.48"/>
    <path class="cls-3" d="M131.97,574.9l354,121.22s431.81-164.63,465.64-169.02c29.04-3.76,371.42,50.65,400.48,47.03,29.99-3.74,567.97-157.8,567.97-157.8"/>
    <path class="cls-37" d="M109.98,567.35l374.92,129.31s436.65-176.06,464.85-179.71c24.2-3.14,376.41,59.67,400.63,56.65,24.99-3.11,569.68-169.13,569.68-169.13"/>
    <path class="cls-12" d="M88,559.8l395.84,137.39s441.5-187.48,464.06-190.4c19.36-2.51,381.4,68.69,400.78,66.28,19.99-2.49,571.39-180.45,571.39-180.45"/>
    <path class="cls-8" d="M66.01,552.25l416.77,145.47s446.35-198.9,463.26-201.1c14.52-1.88,386.4,77.71,400.93,75.9,14.99-1.87,573.09-191.78,573.09-191.78"/>
    <path class="cls-30" d="M44.03,544.7l437.69,153.55s451.19-210.33,462.47-211.79c9.68-1.25,391.39,86.73,401.08,85.52,10-1.25,574.8-203.1,574.8-203.1"/>
    <path class="cls-19" d="M22.04,537.14l458.61,161.63s456.04-221.75,461.67-222.48c4.84-.63,396.38,95.75,401.23,95.15s576.5-214.43,576.5-214.43"/>
    <polyline class="cls-15" points=".06 529.59 479.59 699.31 940.47 466.13 1341.85 570.9 1920.06 345.14"/>
    <path class="cls-16" d="M.06,521.97s464.82,172.74,468.89,174.49c10.33,4.46,474.41-221.98,483.46-228.68,2.96-2.19,386.2,91.76,391.88,88.6,5.14-2.86,575.78-224.57,575.78-224.57"/>
    <path class="cls-34" d="M.06,514.36s450.1,175.76,458.24,179.27c20.66,8.92,487.94-210.79,506.03-224.18,5.93-4.39,371.03,78.75,382.39,72.43,10.29-5.72,573.34-223.39,573.34-223.39"/>
    <path class="cls-35" d="M.06,506.74s435.39,178.79,447.59,184.05c30.99,13.38,501.47-199.6,528.61-219.68,8.89-6.58,355.85,65.74,372.9,56.26,15.43-8.58,570.91-222.21,570.91-222.21"/>
    <path class="cls-18" d="M.06,499.12s420.67,181.81,436.94,188.83c41.32,17.84,515-188.4,551.18-215.18,11.86-8.78,340.68,52.73,363.41,40.09,20.58-11.44,568.48-221.03,568.48-221.03"/>
    <path class="cls-10" d="M.06,491.5s405.95,184.83,426.29,193.61c51.66,22.29,528.54-177.21,573.76-210.68,14.82-10.97,325.5,39.72,353.91,23.92,25.72-14.3,566.04-219.85,566.04-219.85"/>
    <path class="cls-41" d="M.06,483.88s391.24,187.86,415.64,198.39c61.99,26.75,542.07-166.02,596.33-206.18,17.78-13.16,310.33,26.71,344.42,7.75,30.87-17.17,563.61-218.67,563.61-218.67"/>
    <path class="cls-9" d="M.06,476.27s376.52,190.88,404.99,203.17c72.32,31.21,555.6-154.82,618.91-201.68,20.75-15.36,295.15,13.7,334.93-8.42,36.01-20.03,561.18-217.48,561.18-217.48"/>
    <path class="cls-38" d="M.06,468.65s361.8,193.91,394.34,207.95c82.65,35.67,569.13-143.63,641.48-197.18,23.71-17.55,279.98.69,325.44-24.59,41.16-22.89,558.74-216.3,558.74-216.3"/>
    <path class="cls-1" d="M.06,461.03s347.09,196.93,383.69,212.73c92.98,40.13,582.66-132.43,664.06-192.68,26.68-19.74,264.8-12.31,315.95-40.76,46.3-25.75,556.31-215.12,556.31-215.12"/>
    <path class="cls-42" d="M.06,453.41s332.37,199.96,373.04,217.51c103.31,44.59,596.19-121.24,686.63-188.18,29.64-21.94,249.63-25.32,306.45-56.93,51.44-28.61,553.88-213.94,553.88-213.94"/>
    <path class="cls-6" d="M.06,445.79s317.65,202.98,362.39,222.29c113.64,49.05,609.72-110.05,709.21-183.68,32.6-24.13,234.46-38.33,296.96-73.1,56.59-31.47,551.44-212.76,551.44-212.76"/>
    <path class="cls-7" d="M.06,438.18s302.94,206,351.74,227.07c123.97,53.51,623.25-98.85,731.78-179.18,35.57-26.33,219.28-51.34,287.47-89.26,61.73-34.33,549.01-211.58,549.01-211.58"/>
    <path class="cls-40" d="M.06,430.56s288.22,209.03,341.09,231.85c134.3,57.97,636.78-87.66,754.36-174.69,38.53-28.52,204.11-64.35,277.98-105.43,66.88-37.19,546.58-210.4,546.58-210.4"/>
    <path class="cls-26" d="M.06,422.94s273.5,212.05,330.44,236.62c144.63,62.43,650.31-76.47,776.93-170.19,41.5-30.71,188.93-77.36,268.49-121.6,72.02-40.05,544.14-209.22,544.14-209.22"/>
    <path class="cls-43" d="M.06,415.32s258.79,215.08,319.79,241.4c154.97,66.88,663.84-65.27,799.51-165.69,44.46-32.91,173.76-90.37,258.99-137.77,77.17-42.91,541.71-208.04,541.71-208.04"/>
    <path class="cls-4" d="M.06,407.7s244.07,218.1,309.14,246.18c165.3,71.34,677.37-54.08,822.08-161.19,47.42-35.1,158.58-103.38,249.5-153.94,82.31-45.77,539.28-206.85,539.28-206.85"/>
    <path class="cls-21" d="M.06,400.08s229.36,221.13,298.49,250.96c175.63,75.8,690.91-42.88,844.66-156.69,50.39-37.3,143.41-116.39,240.01-170.11,87.45-48.64,536.84-205.67,536.84-205.67"/>
    <path class="cls-39" d="M.06,392.47s214.64,224.15,287.84,255.74c185.96,80.26,704.44-31.69,867.23-152.19,53.35-39.49,128.23-129.4,230.52-186.28,92.6-51.5,534.41-204.49,534.41-204.49"/>
    <path class="cls-14" d="M.06,384.85s199.92,227.17,277.19,260.52c196.29,84.72,717.97-20.5,889.81-147.69,56.32-41.68,113.06-142.41,221.03-202.45,97.74-54.36,531.98-203.31,531.98-203.31"/>
    <path class="cls-23" d="M.06,377.23s185.21,230.2,266.54,265.3c206.62,89.18,731.5-9.3,912.38-143.19,59.28-43.88,97.88-155.42,211.53-218.62,102.89-57.22,529.55-202.13,529.55-202.13"/>
    <path class="cls-36" d="M.06,369.61s170.49,233.22,255.89,270.08c216.95,93.64,745.03,1.89,934.96-138.69,62.24-46.07,82.71-168.43,202.04-234.79,108.03-60.08,527.11-200.95,527.11-200.95"/>
  </g>
</svg>