<?xml version="1.0" encoding="UTF-8"?>
<svg xmlns="http://www.w3.org/2000/svg" viewBox="0 0 880 880">
  <defs>
    <style>
      .cls-1 {
        fill: #fea42d;
      }

      .cls-1, .cls-2, .cls-3, .cls-4, .cls-5, .cls-6, .cls-7, .cls-8, .cls-9, .cls-10, .cls-11, .cls-12, .cls-13, .cls-14, .cls-15 {
        stroke-width: 0px;
      }

      .cls-2 {
        fill: #fe5d1b;
      }

      .cls-3 {
        fill: #fea216;
      }

      .cls-4 {
        fill: #fe642d;
      }

      .cls-5 {
        fill: #fe8e17;
      }

      .cls-6 {
        fill: #fe491c;
      }

      .cls-7 {
        fill: #fe4f18;
      }

      .cls-8 {
        fill: #fe402c;
      }

      .cls-9 {
        fill: #fe7b18;
      }

      .cls-10 {
        fill: #fe6c1d;
      }

      .cls-11 {
        fill: #fe2c1c;
      }

      .cls-12 {
        fill: #fe862c;
      }

      .cls-16 {
        mix-blend-mode: darken;
      }

      .cls-13 {
        fill: #fe991d;
      }

      .cls-17 {
        isolation: isolate;
      }

      .cls-14 {
        fill: #fe1a14;
      }

      .cls-15 {
        fill: #fe3d14;
      }
    </style>
  </defs>
  <g class="cls-17">
    <g id="Layer_1" data-name="Layer 1">
      <g id="z5jChR.tif" class="cls-16">
        <g>
          <path class="cls-15" d="M586.35,783.17c.04,2.71-.17,4.47-2.39,5.12-1.47.43-2.61-.23-3.62-1.08-1.26-1.05-1.6-2.47-1.03-4.02.67-1.84,2.21-1.74,3.72-1.5,1.53.24,3.04,2.2,4.38-.72,1.15-2.48,3.5-2.19,5.42-.62,1.33,1.09,2.27,2.69,1.04,4.34-1.64,2.2-3.66,1.76-5.59.24-.5-.39-.94-.85-1.94-1.76Z"/>
          <path class="cls-7" d="M831.86,431.94c-2.05-.37-3.88-1.04-3.54-3.04.74-4.29,5.05-2.62,7.6-3.91,1.49-.75,3.56.56,3.38,2.53-.46,4.91-5.65,1.97-7.45,4.43Z"/>
          <path class="cls-15" d="M153.6,701.52c-1.16,3.52-5.16,1.97-7.26,3.99-.58.56-1.69-.68-2.09-1.65-.58-1.39-.17-3.35.73-3.6,2.85-.81,5.34-3.77,8.75-1.81-.04,1.03-.08,2.05-.12,3.08Z"/>
          <path class="cls-11" d="M675.05,778.1c-.36,1.99-1.3,3.58-3.53,3.38-2.22-.2-3.7-1.7-3.77-3.94-.07-2.13,1.32-3.45,3.46-3.37,2.36.09,3.36,1.82,3.84,3.93Z"/>
          <path class="cls-5" d="M754.92,676.68c-.05-.66-.03-1.33-.15-1.98-.35-1.82.1-3.29,1.81-4.2,1.34-.71,2.59-.38,3.7.5,2.11,1.66,1.72,3.72.83,5.83-2.11,1.63-4.13.01-6.19-.16Z"/>
          <path class="cls-9" d="M678.26,733.78c-2.3-.4-3.96-1.4-3.93-3.82.03-2.09,1.2-3.48,3.43-3.42,2.29.06,3.77,1.28,3.83,3.69.06,2.26-1.48,3.13-3.34,3.55Z"/>
          <path class="cls-10" d="M727.23,741.22c-2.62-.19-3.97-1.65-4.12-4.13-.13-2.07,1.29-3.18,3.07-3.14,2.43.05,4.01,1.57,4.1,4.09.07,1.97-1.2,2.95-3.04,3.19Z"/>
          <path class="cls-5" d="M786.02,661.8c2.18.3,3.79,1.44,4,3.7.16,1.83-.89,3.33-2.87,3.33-2.45,0-4.12-1.32-4.26-3.9-.11-2.03,1.22-2.92,3.14-3.13Z"/>
          <path class="cls-7" d="M585.71,820.28c2.05.26,3.52,1.39,3.72,3.73.17,1.93-.77,3.43-2.68,3.5-2.51.09-4.01-1.57-4.2-4-.15-1.88.94-3.11,3.16-3.23Z"/>
          <path class="cls-14" d="M757.22,652.94c.49-.05.98-.15,1.47-.13,2.58.09,4.01,1.55,4.08,4.01.05,1.77-.82,3.29-2.91,3.26-2.54-.04-3.97-1.34-3.85-4.03.4-1.03.8-2.07,1.21-3.11Z"/>
          <path class="cls-2" d="M826.52,570.19c-.02,2.19-1.11,3.38-3.03,3.32-2.44-.07-4.06-1.52-4.2-4-.09-1.66,1.04-2.81,2.78-2.86,2.5-.07,3.95,1.29,4.45,3.53Z"/>
          <path class="cls-14" d="M770.73,678.82c-2.07-.35-3.64-1.36-3.65-3.75,0-1.97,1.19-3.13,3.08-3.04,2.22.1,3.7,1.51,3.8,3.74.09,1.93-1.3,2.85-3.24,3.06Z"/>
          <path class="cls-8" d="M332.56,78.04c-1.62-.17-3.16-.9-2.79-2.34.49-1.92.78-4.49,3.59-4.76,1.52-.14,2.93.74,2.64,2.23-.39,2.02-1.1,4.2-3.44,4.86Z"/>
          <path class="cls-13" d="M716.22,639.18c-.27,1.99-1.12,3.6-3.38,3.54-2.29-.06-3.15-1.84-3.11-3.78.04-1.93.97-3.75,3.26-3.62,2.17.12,2.95,1.87,3.23,3.86Z"/>
          <path class="cls-11" d="M845.25,489.04c.43-1.19-.28-2.63.89-3.67,1.59-1.41,3.25-1.43,4.92-.27,1.33.93,2.04,2.32,1.26,3.84-.86,1.67-2.47,2.05-4.2,1.42-1.02-.37-1.97-.95-2.95-1.44l.08.11Z"/>
          <path class="cls-7" d="M495.31,812.23c2.55.57,3.95,2.04,4.03,4.44.06,1.74-1.14,2.9-2.8,2.62-2.26-.38-3.88-1.84-3.88-4.34,0-1.72,1.06-2.63,2.64-2.72Z"/>
          <path class="cls-5" d="M428.4,844.79c-.16,1.79-.7,3.48-2.72,3.5-2.42.02-3.31-1.81-3.47-3.97-.12-1.68.64-3.03,2.36-3.18,2.5-.22,3.27,1.68,3.82,3.66Z"/>
          <path class="cls-2" d="M785.84,637c2,.5,3.52,1.39,3.56,3.57.03,1.98-1.21,3.13-3.08,3.09-2.26-.04-3.76-1.44-3.75-3.71.01-1.94,1.58-2.69,3.27-2.95Z"/>
          <path class="cls-11" d="M465.44,845.99c-2.2-.31-3.03-1.82-2.95-3.8.07-1.87,1.27-3.2,3.13-3.04,2.05.17,3.12,1.67,2.95,3.79-.15,1.87-1.14,2.98-3.12,3.05Z"/>
          <path class="cls-2" d="M416.82,144.12c-1.94-3-4.84-2.88-7.54-3.58-1.35-.35-.19-2.05.63-2.77,1.21-1.07,3.29-2.63,4.1-.72.89,2.08,2.23,3.37,3.66,4.85.83.86-.16,1.32-.85,2.22Z"/>
          <path class="cls-5" d="M850.35,499.18c-.18,2.15-1.47,3.01-3.35,2.87-1.96-.15-3.55-1.17-3.74-3.26-.18-1.99,1.14-3.09,3.05-3.02,2.17.08,3.74,1.12,4.03,3.41Z"/>
          <path class="cls-9" d="M845.16,488.93c.06,1.88.05,3.71-2.39,4.16-1.85.34-3.28-.45-4.28-1.85-.83-1.15-.92-2.52.27-3.58,1.45-1.28,3.01-1.08,4.53-.06.67.45,1.31.96,1.96,1.44,0,0-.09-.11-.09-.11Z"/>
          <path class="cls-3" d="M496.89,845.09c.37-1.89,1.01-3.55,3.06-3.32,2.22.25,3.39,1.93,3.42,4.09.03,1.84-.96,3.21-2.98,3.07-2.37-.16-3.17-1.93-3.5-3.84Z"/>
          <path class="cls-2" d="M432.08,800.4c-.05,1.45-.47,2.98-2.07,2.84-2.17-.19-3.49-1.81-3.76-3.98-.16-1.3-.09-2.98,1.7-2.99,2.58-.01,3.6,1.91,4.12,4.13Z"/>
          <path class="cls-14" d="M765.92,620.74c1.83.31,3.1,1.43,3.01,3.24-.08,1.75-1.23,3.05-3.24,2.89-1.92-.15-3.06-1.44-3.02-3.21.04-1.8,1.25-2.93,3.25-2.92Z"/>
          <path class="cls-2" d="M757.22,652.94c-.4,1.04-.8,2.07-1.21,3.11-.52-.35-1.01-.95-1.56-1-2.25-.22-3.86-1.2-3.78-3.57.05-1.57,1.2-2.75,2.91-2.72,2.65.05,3.67,1.71,3.63,4.19Z"/>
          <path class="cls-9" d="M616.31,664.52c-.5,2.19-2.08,3.2-4.26,3.16-1.6-.03-3.07-.79-2.95-2.63.16-2.46,2.08-3.2,4.19-3.22,1.59-.01,2.88.69,3.02,2.68Z"/>
          <path class="cls-3" d="M849.95,385.07c-.42,2.02-1.78,2.83-3.61,2.68-2-.17-3.63-1.16-3.46-3.41.13-1.73,1.57-2.49,3.23-2.4,1.99.11,3.44,1.04,3.85,3.13Z"/>
          <path class="cls-4" d="M701.53,674.71c-.35,1.74-1.32,2.99-3.29,2.83-1.61-.13-2.85-1.08-2.79-2.83.08-2.15,1.42-3.29,3.55-3.14,1.75.13,2.47,1.38,2.52,3.13Z"/>
          <path class="cls-3" d="M519.19,817.65c1.96.21,2.93,1.57,2.95,3.32.01,1.84-1.26,3.21-3.11,3.16-1.82-.05-2.97-1.29-2.83-3.32.13-1.85.83-3.17,2.99-3.16Z"/>
          <path class="cls-13" d="M848.45,466.94c-.31,1.93-1.56,2.92-3.42,2.8-2.02-.13-3.59-1.26-3.41-3.44.16-1.96,1.76-2.72,3.62-2.54,1.85.17,3.02,1.19,3.22,3.18Z"/>
          <path class="cls-7" d="M376.28,809.04c-2.51-.17-3.06-2.21-3.46-4.09-.29-1.34.42-2.85,1.91-2.98,2.49-.2,3.26,1.86,3.71,3.78.38,1.62-.28,2.91-2.16,3.28Z"/>
          <path class="cls-6" d="M442.46,835.65c-.05,1.96-1.02,3.37-2.85,3.54-1.91.18-3.09-1.14-3.14-3.06-.05-1.83.77-3.32,2.77-3.5,2.07-.18,2.86,1.28,3.23,3.02Z"/>
          <path class="cls-5" d="M287.64,810.43c-.15,1.22-.78,2.85-2.85,2.67-2-.17-2.64-1.78-2.52-3.62.12-1.78.78-3.54,2.84-3.29,1.8.21,2.65,1.8,2.53,4.24Z"/>
          <path class="cls-15" d="M795.41,422.6c-2.11-.55-4.2-1.24-4.44-3.89-.15-1.62,1.17-1.85,2.36-1.8,2.42.09,4.16,1.33,4.5,3.75.2,1.39-1.13,1.83-2.42,1.95Z"/>
          <path class="cls-8" d="M602.29,74.46c-1.81.12-2.94-.52-2.93-2.12.02-2.17,1.48-3.18,3.5-3.3,1.57-.09,2.56.84,2.42,2.38-.17,1.84-1.41,2.85-2.99,3.04Z"/>
          <path class="cls-4" d="M506.7,776.47c-.34,1.83-1.29,3.12-3.28,3.02-1.78-.09-2.65-1.22-2.43-3.02.21-1.74,1.34-2.71,2.98-2.79,1.78-.09,2.72.98,2.74,2.8Z"/>
          <path class="cls-14" d="M754.92,676.68c2.06.17,4.08,1.79,6.19.16.83,2.54.74,5.08-2.51,5.12-3.07.04-4.95-1.78-3.68-5.28Z"/>
          <path class="cls-3" d="M843.03,352.11c-.54,1.88-1.83,2.83-3.69,2.67-1.56-.14-3.05-.87-3.02-2.71.04-1.99,1.52-2.99,3.35-2.93,1.76.05,3.2.89,3.36,2.97Z"/>
          <path class="cls-3" d="M234.85,790.18c-.14,1.95-.52,3.54-2.66,3.65-2.22.11-2.74-1.33-2.66-3.18.09-1.81.75-3.23,2.85-3.2,1.87.03,2.46,1.29,2.47,2.74Z"/>
          <path class="cls-9" d="M153.6,701.52c.04-1.03.08-2.05.12-3.08.97-1.48,1.69-3.68,4.02-2.75,1.63.65,1.5,2.5,1.09,3.95-.84,2.92-3.09,2.34-5.23,1.89Z"/>
          <path class="cls-2" d="M669.15,594.65c-.4,1.66-.36,3.58-2.44,3.26-2.2-.34-2.51-2.29-2.54-4.17-.02-1.59.37-3.25,2.3-3.03,2.29.27,2.06,2.57,2.68,3.94Z"/>
          <path class="cls-14" d="M399.55,771.95c-2.1-.76-3.12-2.47-3.19-4.78-.03-1,.28-2.29,1.48-2.09,2.43.39,3.38,2.33,3.66,4.56.15,1.2-.11,2.34-1.95,2.31Z"/>
          <path class="cls-3" d="M722.31,693.06c-1.82-.19-3.04-1.17-3.07-3.13-.03-1.97,1.1-3.18,3.08-3.1,1.84.07,3.15,1.09,3.19,3.11.04,2.04-1.16,2.98-3.2,3.13Z"/>
          <path class="cls-12" d="M378.72,56.31c-.26,1.71-1.22,2.93-3.18,3.03-1.64.09-2.57-.99-2.52-2.44.07-1.85,1.28-3.07,3.19-3.16,1.53-.07,2.49.77,2.51,2.57Z"/>
          <path class="cls-3" d="M825.96,294.23c-.4,1.85-1.63,2.8-3.5,2.74-1.57-.06-3.11-.71-3.29-2.43-.22-2.11,1.45-2.87,3.19-3.03,1.85-.16,3.16.72,3.6,2.72Z"/>
          <path class="cls-7" d="M816.34,294.82c-.55,2.36-2.26,2.58-3.89,2.57-1.8-.01-3.44-.84-3.16-2.89.25-1.85,1.83-2.67,3.69-2.4,1.71.24,3.09,1.02,3.37,2.73Z"/>
          <path class="cls-3" d="M526.17,733.9c-.03-1.48.72-2.36,2.07-2.17,2.22.31,4.14,1.35,4.61,3.78.26,1.32-.52,2.3-1.99,2.09-2.25-.32-4.03-1.36-4.69-3.7Z"/>
          <path class="cls-6" d="M822.58,323.02c1.69.09,2.93.75,2.87,2.64-.06,2.01-1.41,3.02-3.21,3.06-1.56.03-3.02-.82-2.94-2.62.09-1.88,1.45-2.84,3.28-3.08Z"/>
          <path class="cls-2" d="M190.85,758.93c.09,1.98-1,3.32-2.76,3.6-1.83.29-2.59-1.08-2.65-2.82-.07-1.97,1-3.37,2.75-3.6,1.67-.22,2.73.98,2.66,2.82Z"/>
          <path class="cls-9" d="M196.23,763.68c2.16.28,2.75,1.54,2.64,3.2-.12,1.86-1.09,3.22-3.04,3.2-1.82-.02-2.46-1.35-2.37-3.08.1-1.98,1.32-2.85,2.77-3.32Z"/>
          <path class="cls-10" d="M451.47,816.17c-.27,1.81-1.22,3.22-3.1,3.27-1.65.04-2.82-1.14-2.75-2.87.08-1.8,1.04-3.22,3.03-3.26,1.79-.04,2.58,1.19,2.82,2.87Z"/>
          <path class="cls-9" d="M833.61,458.16c-.2,1.91-1.39,2.84-3.29,2.83-1.66,0-2.98-.77-3.12-2.53-.17-2.02,1.22-3.09,3.01-3.23,1.84-.14,3.12.86,3.4,2.93Z"/>
          <path class="cls-15" d="M738.43,608.06c-1.99.07-2.63-1.3-2.6-2.85.03-1.7,1.24-2.69,2.9-2.77,1.71-.08,2.85.83,2.84,2.64-.01,2-1.22,2.91-3.14,2.98Z"/>
          <path class="cls-15" d="M219.15,782.84c-1.86-.26-2.53-1.52-2.49-3.12.05-2.02,1.1-3.65,3.22-3.53,1.69.1,2.28,1.64,2.1,3.32-.19,1.77-.77,3.2-2.83,3.33Z"/>
          <path class="cls-3" d="M596.78,632.71c1.32.08,3.15-.02,2.91,2.16-.21,1.94-2.01,2.59-3.66,2.77-1.52.17-3.36-.36-3.35-2.15.01-2.26,1.93-2.78,4.09-2.78Z"/>
          <path class="cls-1" d="M170.84,178.08c-.45,1.61-1.47,2.85-3.37,2.74-1.47-.08-2.46-1.06-2.2-2.63.29-1.79,1.35-3.02,3.32-2.88,1.51.11,2.32,1.05,2.25,2.76Z"/>
          <path class="cls-5" d="M517.75,745.64c.08,1.65-.48,2.46-2,2.3-2.42-.25-3.95-1.63-4.39-3.94-.25-1.28.55-2.35,2-2.11,2.25.38,3.89,1.62,4.39,3.75Z"/>
          <path class="cls-8" d="M42.82,506.52c-.24,1.7-1.24,2.63-2.92,2.71-1.55.08-2.57-.78-2.57-2.29,0-1.91,1.21-3.02,3.12-2.96,1.47.05,2.35.96,2.37,2.53Z"/>
          <path class="cls-7" d="M612.58,604.61c-.28,1.87-.77,3.88-3.15,4.25-1.38.22-2.06-.97-2.06-2.24,0-2.13.8-4.04,2.94-4.65,1.82-.52,2.04,1.14,2.28,2.64Z"/>
          <path class="cls-13" d="M66.7,350.09c1.72.13,2.42,1.2,2.25,2.69-.23,1.95-1.67,2.89-3.48,2.84-1.28-.03-2.07-1.05-1.98-2.41.13-1.98,1.39-2.89,3.21-3.12Z"/>
          <path class="cls-11" d="M214.71,103.6c-.14,1.7-1,2.81-2.69,2.93-1.48.1-2.53-.65-2.58-2.25-.06-1.75,1.03-2.77,2.62-2.93,1.47-.15,2.38.79,2.65,2.26Z"/>
          <path class="cls-12" d="M524.75,50.68c-.19,1.95-1.45,2.97-3.21,3.19-1.57.2-2.6-.86-2.55-2.34.06-1.85,1.28-3.01,3.17-3.17,1.61-.14,2.39.82,2.6,2.32Z"/>
          <path class="cls-14" d="M75.3,594.91c-.31,2.02-1.3,3.34-3.16,3.37-1.39.03-2.6-.85-2.26-2.52.33-1.62,1-3.16,3.07-3.22,1.76-.05,2.09,1.21,2.35,2.36Z"/>
          <path class="cls-6" d="M592.4,594.84c-.2,1.47-.56,3.6-3.04,3.77-1.46.1-1.68-1.51-1.48-2.62.33-1.87.43-4.25,3.06-4.34,1.44-.05,1.54,1.43,1.46,3.18Z"/>
          <path class="cls-6" d="M82.59,531.18c1.55.36,2.24,1.5,1.84,2.89-.44,1.55-1.2,3.12-3.3,3.05-1.47-.05-2.09-.91-1.88-2.25.3-1.89,1.14-3.41,3.35-3.69Z"/>
          <path class="cls-6" d="M604.24,85.3c1.62.14,2.67.99,2.52,2.51-.19,1.98-1.81,2.67-3.56,2.77-1.55.09-2.59-.76-2.41-2.4.22-2,1.86-2.5,3.44-2.88Z"/>
          <path class="cls-9" d="M471.05,32.94c1.48.17,2.53.88,2.52,2.46,0,1.68-.86,2.85-2.65,2.88-1.52.03-2.49-.85-2.52-2.41-.04-1.73.93-2.7,2.65-2.93Z"/>
          <path class="cls-14" d="M697.28,629.63c1.8,0,2.34,1.17,2.27,2.64-.09,1.75-1.19,2.72-2.92,2.76-1.92.05-2.72-1.07-2.48-2.88.24-1.78,1.45-2.49,3.14-2.52Z"/>
          <path class="cls-3" d="M578.63,583.8c1.35-.04,2.22.41,2.11,1.65-.2,2.26-1.72,3.49-3.76,4.03-1.42.37-2.36-.46-2.14-1.85.35-2.16,1.96-3.28,3.79-3.83Z"/>
          <path class="cls-11" d="M330.01,53.06c-1.41-.29-2.51-1-2.41-2.58.11-1.73,1.22-2.67,2.96-2.52,1.57.13,2.33,1.18,2.15,2.71-.17,1.52-1.27,2.18-2.71,2.39Z"/>
          <path class="cls-4" d="M40.87,366.73c1.81.14,2.77.95,2.81,2.47.05,1.73-.97,2.77-2.66,2.91-1.79.15-2.87-.94-2.8-2.63.07-1.64,1.27-2.54,2.65-2.75Z"/>
          <path class="cls-2" d="M38.08,463.09c-.33,1.64-1.29,2.76-2.94,2.75-1.71,0-2.76-1.02-2.43-2.85.3-1.65,1.43-2.56,3.11-2.47,1.55.08,2.3,1.04,2.26,2.57Z"/>
          <path class="cls-14" d="M686.42,114.4c-.4,1.77-1.42,2.91-3.37,2.98-1.56.06-2.78-.63-2.63-2.23.16-1.8,1.35-3,3.31-3.06,1.51-.04,2.57.57,2.69,2.3Z"/>
          <path class="cls-12" d="M45.71,347.67c-1.59-.3-2.5-1.24-2.42-2.74.09-1.74,1.3-2.74,2.97-2.67,1.5.06,2.39,1.15,2.32,2.68-.08,1.81-1.34,2.49-2.88,2.73Z"/>
          <path class="cls-2" d="M774.69,304.64c-.13,1.63-1.27,2.31-2.64,2.28-2.01-.04-4.16-.51-4.41-2.94-.17-1.64,1.43-2.01,2.8-1.98,1.88.04,3.56.57,4.25,2.63Z"/>
          <path class="cls-12" d="M81.72,276.51c-.07,1.75-1.04,2.88-2.68,3.11-1.77.25-2.94-.77-2.88-2.58.05-1.7,1.21-2.73,2.89-2.87,1.58-.13,2.43.82,2.67,2.34Z"/>
          <path class="cls-11" d="M40.62,386.98c-.11,1.65-1.04,2.71-2.69,2.88-1.54.16-2.55-.84-2.67-2.28-.13-1.69.87-2.79,2.61-2.91,1.54-.11,2.38.81,2.75,2.31Z"/>
          <path class="cls-1" d="M424.36,35.16c-.3,1.62-1.19,2.72-2.95,2.6-1.51-.1-2.38-1.08-2.32-2.63.07-1.78,1.21-2.74,2.88-2.66,1.45.08,2.29,1.12,2.4,2.68Z"/>
          <path class="cls-6" d="M725.3,628.21c-.39,1.75-1.48,2.76-3.43,2.69-1.57-.05-2.54-.99-2.53-2.47.01-1.9,1.22-3.12,3.11-3.12,1.64,0,2.75.98,2.84,2.9Z"/>
          <path class="cls-1" d="M232.85,93.84c-.1,1.82-1.32,2.66-2.89,2.71-1.46.05-2.5-.87-2.47-2.45.02-1.79,1.19-2.65,2.84-2.72,1.59-.07,2.27,1.03,2.52,2.47Z"/>
          <path class="cls-8" d="M697.47,155.16c-1.66.02-2.49-.91-2.54-2.39-.05-1.66.81-2.86,2.54-3.03,1.59-.16,2.48.88,2.53,2.34.05,1.65-.95,2.69-2.53,3.08Z"/>
          <path class="cls-11" d="M112.82,607.92c-1.97.28-2.42-.88-2.5-2.04-.15-1.96.55-3.63,2.65-4.14,1.58-.39,2.02.92,2.15,2.07.24,2.03-.78,3.41-2.3,4.12Z"/>
          <path class="cls-12" d="M259.11,180.85c-1.2.02-2.39-.32-2.19-1.47.44-2.52,2.82-2.82,4.78-3.42,1-.31,2.26.07,2.04,1.31-.45,2.49-3.05,2.53-4.63,3.58Z"/>
          <path class="cls-10" d="M763.55,200.57c-.22,1.99-1.55,2.87-3.33,2.89-1.46.02-2.5-.84-2.36-2.48.17-1.96,1.46-2.84,3.31-2.89,1.62-.04,2.3.96,2.38,2.48Z"/>
          <path class="cls-3" d="M654.2,93.9c-.64,1.82-1.83,2.84-3.7,2.66-1.53-.15-2.5-1.16-2.06-2.7.48-1.68,1.74-2.84,3.65-2.59,1.47.18,2.35,1.06,2.11,2.63Z"/>
          <path class="cls-8" d="M586.41,661.16c1.35.23,2.16.98,1.87,2.39-.34,1.65-1.51,2.6-3.19,2.63-1.43.02-2.17-.85-1.86-2.29.35-1.65,1.52-2.49,3.17-2.72Z"/>
          <path class="cls-7" d="M659.01,111.46c-.71,1.72-1.61,2.93-3.6,2.87-1.43-.05-2.85-.3-2.77-1.95.1-2.1,1.72-3.04,3.68-3.14,1.52-.07,2.29.97,2.69,2.22Z"/>
          <path class="cls-7" d="M522.16,128.24c-.75,2.14-2.11,3.08-4.1,3.13-1.28.03-2.51-.36-2.17-1.85.4-1.77,1.93-2.5,3.68-2.67,1.24-.12,2.19.26,2.59,1.4Z"/>
          <path class="cls-11" d="M118.88,324.16c-.13,1.39-.91,2.74-2.82,3.05-1.23.2-2.43-.1-2.48-1.65-.06-2.05.86-3.49,3.04-3.75,1.37-.16,2.21.46,2.26,2.35Z"/>
          <path class="cls-4" d="M433.17,55.44c-.02,1.53-.86,2.5-2.34,2.5-1.41,0-2.46-.85-2.59-2.37-.11-1.25.34-2.27,1.76-2.45,1.74-.22,2.73.68,3.17,2.32Z"/>
          <path class="cls-11" d="M462.97,39.64c-.1,1.51-.8,2.58-2.38,2.69-1.6.12-2.52-.85-2.65-2.36-.13-1.58.84-2.5,2.34-2.69,1.67-.2,2.32.96,2.69,2.36Z"/>
          <path class="cls-14" d="M286.57,730.27c2.31.51,2.5,2.27,2.73,3.83.23,1.53-.18,3.32-1.98,3.26-1.68-.06-2.13-1.87-2.15-3.39-.02-1.41-.07-2.95,1.4-3.7Z"/>
          <path class="cls-1" d="M195.33,730.17c1.49.34,2.49,1.09,2.18,2.77-.31,1.72-1.47,2.63-3.18,2.51-1.55-.11-2.44-1.08-2.19-2.69.28-1.75,1.56-2.42,3.18-2.58Z"/>
          <path class="cls-2" d="M208.63,724.71c-.18,1.72-1.35,2.53-2.94,2.67-1.3.11-2.33-.62-2.42-1.94-.11-1.73.98-2.76,2.65-2.96,1.53-.19,2.49.58,2.71,2.23Z"/>
          <path class="cls-1" d="M309.25,61.16c-1.51-.2-2.53-1.01-2.54-2.53-.01-1.48.88-2.54,2.43-2.6,1.77-.07,2.88.93,2.8,2.71-.07,1.52-1.23,2.23-2.68,2.42Z"/>
          <path class="cls-6" d="M57.27,578.54c-1.28-.37-2.67-.85-2.37-2.56.31-1.75,1.38-3.07,3.34-3.04,1.38.02,2.16,1.13,2.17,2.31.01,1.91-1.26,2.94-3.14,3.29Z"/>
          <path class="cls-3" d="M156.86,725.98c1.59.22,2.41,1.25,2.34,2.66-.09,1.81-1.15,3.09-3.06,3.12-1.52.02-2.45-1.04-2.33-2.51.15-1.78,1.35-2.86,3.05-3.27Z"/>
          <path class="cls-11" d="M197.43,246.65c-.46,1.78-1.36,3.27-3.41,3.55-1.45.2-2.2-.7-2-2.03.26-1.7,1.22-3.01,3.06-3.29,1.26-.19,2.27.17,2.35,1.77Z"/>
          <path class="cls-12" d="M299.48,794.04c-.45,2.01-1.47,3.38-3.27,3.36-1.6-.02-2.76-1.22-2.41-2.96.34-1.67,1.33-3.01,3.35-2.83,1.6.14,2.02,1.35,2.33,2.43Z"/>
          <path class="cls-10" d="M197.24,181.5c-1.24-.08-2.44-.49-2.37-1.91.1-1.99,1.24-3.36,3.35-3.5,1.41-.09,2.19.94,2.1,2.16-.14,1.76-1.12,3.04-3.08,3.25Z"/>
          <path class="cls-10" d="M791.94,287.8c-1.31-.27-2.66-.72-2.6-2.33.07-1.84,1.3-3.04,3.1-3.18,1.4-.11,2.65.75,2.63,2.27-.02,1.86-1.35,2.83-3.13,3.24Z"/>
          <path class="cls-3" d="M750.48,295.96c1.85.12,3.85.61,4.15,2.63.26,1.75-1.69,1.74-2.92,1.78-1.7.07-3.51-.35-3.86-2.29-.32-1.75,1.22-2,2.63-2.12Z"/>
          <path class="cls-12" d="M508.93,43.86c-1.45-.27-2.42-1.07-2.42-2.6,0-1.75,1.11-2.74,2.76-2.8,1.59-.06,2.34,1.11,2.38,2.55.05,1.76-1.03,2.65-2.73,2.86Z"/>
          <path class="cls-8" d="M59.91,521.8c-.06,1.48-.92,2.31-2.49,2.37-1.56.06-2.6-.68-2.7-2.26-.11-1.63.96-2.45,2.46-2.5,1.48-.05,2.54.65,2.73,2.39Z"/>
          <path class="cls-6" d="M149.54,158.12c1.62.11,2.58.88,2.51,2.46-.07,1.46-.92,2.44-2.44,2.61-1.58.18-2.62-.64-2.68-2.16-.06-1.69,1-2.67,2.61-2.92Z"/>
          <path class="cls-11" d="M541.36,74.16c-1.48-.26-2.23-1.21-2.26-2.69-.02-1.27.55-2.34,1.93-2.35,1.79-.01,2.65,1.15,2.55,2.87-.07,1.27-.8,2.09-2.22,2.17Z"/>
          <path class="cls-5" d="M320.28,783.05c1.35.39,2.53.99,2.22,2.67-.29,1.59-1.31,2.75-2.94,2.8-1.81.05-2.62-1.23-2.41-2.92.22-1.73,1.58-2.32,3.13-2.55Z"/>
          <path class="cls-10" d="M44.44,364.98c-1.67-.05-2.75-.7-2.9-2.25-.14-1.48.62-2.63,2.1-2.84,1.7-.25,2.87.63,2.99,2.42.1,1.58-1.03,2.26-2.18,2.67Z"/>
          <path class="cls-11" d="M117.5,452.79c1.35-.04,2.07.61,1.98,1.77-.16,2.11-1.03,3.87-3.37,4.19-1.31.18-1.6-.93-1.57-1.98.05-2.05,1.25-3.27,2.95-3.98Z"/>
          <path class="cls-14" d="M606.53,108.16c2.22,0,3.16.66,3.06,2.04-.16,2.26-1.83,2.97-3.79,2.95-1.18-.01-2.49-.55-2.29-1.98.29-2.07,1.95-2.82,3.02-3.02Z"/>
          <path class="cls-10" d="M47.68,448.18c-.58,2.07-1.59,3.37-3.54,3.2-1.54-.13-2.41-1.32-2.04-2.82.37-1.51,1.39-2.69,3.15-2.67,1.66.01,2.15,1.19,2.43,2.29Z"/>
          <path class="cls-1" d="M765.25,431.36c-.32,1.88-1.41,2.84-3.02,2.95-1.68.11-2.34-1.07-2.18-2.57.18-1.67,1.24-2.7,2.93-2.77,1.7-.08,2.18,1.11,2.27,2.39Z"/>
          <path class="cls-8" d="M671.3,576.87c1.5.1,2.25.88,2.03,2.23-.26,1.55-1.13,2.71-2.84,2.9-1.4.16-2.31-.56-2.19-1.93.15-1.79,1.25-2.92,3.01-3.2Z"/>
          <path class="cls-1" d="M103.91,600.25c-1.59-.07-2.63-.89-2.71-2.35-.1-1.65,1.18-2.23,2.6-2.23,1.45,0,2.6.73,2.64,2.28.05,1.63-1.2,2.13-2.53,2.29Z"/>
          <path class="cls-1" d="M64.72,303.44c-.28,1.43-1.06,2.48-2.6,2.48-1.49,0-2.55-.81-2.49-2.43.07-1.7.97-2.9,2.77-2.79,1.53.09,2.24,1.21,2.31,2.74Z"/>
          <path class="cls-4" d="M622.67,612.49c-.4,1.68-1.4,2.89-3.26,2.96-1.09.04-1.91-.79-1.75-1.89.26-1.79,1.43-2.89,3.28-3.02,1.23-.09,1.69.74,1.73,1.95Z"/>
          <path class="cls-11" d="M374.79,768.75c-2.13-.57-2.93-2.32-3.25-4.3-.21-1.32,0-2.97,1.81-2.67,2.26.37,2.86,2.46,3.17,4.4.19,1.16-.18,2.28-1.74,2.56Z"/>
          <path class="cls-8" d="M57.29,448.86c1.39.16,2.46.81,2.6,2.34.14,1.56-.76,2.54-2.26,2.52-1.69-.02-2.69-1.17-2.66-2.82.02-1.28.98-1.96,2.32-2.04Z"/>
          <path class="cls-5" d="M618.24,77.24c-2.55.17-3.3-.85-3.25-2.34.06-1.67,1.09-2.71,2.81-2.89,1.57-.17,2.65.47,2.65,2.13,0,1.94-1.13,2.98-2.21,3.11Z"/>
          <path class="cls-10" d="M65.83,513.01c-.19,1.45-1.01,2.2-2.33,2.17-1.73-.04-2.85-.98-2.67-2.79.13-1.34,1.2-1.94,2.49-1.83,1.48.14,2.38.98,2.5,2.44Z"/>
          <path class="cls-12" d="M157.47,522.76c-.57,1.55-.76,3.69-3.03,3.9-1.19.11-1.55-1.29-1.39-2.21.31-1.79.79-3.8,3.03-4.01,1.1-.1,1.52,1.07,1.39,2.32Z"/>
          <path class="cls-10" d="M388.67,715.68c.58.29.76.33.87.44,1.78,1.74,3.26,3.65,2.37,6.32-.22.68-1.19.65-1.66.14-1.7-1.85-2.72-3.91-1.58-6.9Z"/>
          <path class="cls-13" d="M135.06,426.71c-1.41-.11-1.68-1.09-1.54-2.11.27-1.93,1.32-3.43,3.34-3.68,1.2-.15,1.68.95,1.48,2.02-.35,1.88-1.31,3.34-3.29,3.76Z"/>
          <path class="cls-5" d="M461.72,106.41c-.52,1.9-1.86,2.84-3.87,2.84-1.46,0-2.1-.91-1.85-2.21.37-1.86,1.92-2.52,3.59-2.74,1.36-.18,2.1.6,2.13,2.11Z"/>
          <path class="cls-15" d="M507.75,61.28c0,1.59-.54,2.66-1.83,2.77-1.74.15-2.68-.95-2.72-2.66-.03-1.3.68-2.19,2.03-2.24,1.59-.05,2.19,1.09,2.51,2.12Z"/>
          <path class="cls-11" d="M333.65,135.75c-1.1-.28-2.3-.59-1.96-2.14.39-1.79,1.73-2.81,3.43-2.98,1.07-.11,2.48.31,2.26,1.86-.28,2.02-1.73,2.99-3.73,3.26Z"/>
          <path class="cls-12" d="M667.9,167.47c-1.6-.15-2.24-1.23-2.28-2.64-.04-1.47.78-2.57,2.25-2.67,1.63-.11,2.24,1.11,2.25,2.55,0,1.45-.75,2.43-2.22,2.76Z"/>
          <path class="cls-13" d="M264.04,693.22c-.59,1.14.21,3.5-2,3.22-1.74-.21-1.8-2.15-1.67-3.65.11-1.25-.02-3.12,1.7-3.06,1.91.06,1.8,1.99,1.96,3.49Z"/>
          <path class="cls-12" d="M208.58,171.43c-1.17-.01-2.11-.31-2.11-1.58.01-1.69.94-2.74,2.63-2.92,1.11-.12,1.99.52,2.05,1.61.1,1.75-1.09,2.56-2.57,2.89Z"/>
          <path class="cls-12" d="M485.7,686.25c-.24,1.56-1.2,2.54-2.81,2.83-1.33.24-2.44-.24-2.27-1.71.19-1.62,1.48-2.47,3.05-2.69,1.07-.15,1.96.16,2.03,1.57Z"/>
          <path class="cls-11" d="M447.9,58.03c-.16,1.34-.89,2.15-2.26,2.1-1.59-.06-2.4-1.11-2.41-2.59-.01-1.34.85-2.18,2.21-2.14,1.61.05,2.2,1.22,2.46,2.63Z"/>
          <path class="cls-1" d="M245.91,704.67c-1.24-.15-2.47-.48-2.41-1.93.06-1.85,1.5-2.41,3.1-2.44,1.04-.02,2.06.38,2.13,1.58.1,1.88-1.32,2.42-2.81,2.79Z"/>
          <path class="cls-13" d="M219.61,709.87c-.19,1.77-1.4,2.5-2.98,2.56-1.24.05-2.32-.61-2.28-1.99.05-1.76,1.34-2.54,2.93-2.61,1.26-.05,2.12.67,2.33,2.03Z"/>
          <path class="cls-8" d="M722.26,228.24c-.29,1.83-.82,3.2-2.71,3.22-1.46.01-2.04-1.03-2.02-2.29.03-1.67.9-2.84,2.67-2.96,1.54-.1,1.74,1.17,2.05,2.03Z"/>
          <path class="cls-4" d="M491.47,716.75c.34-1.71,1.38-2.7,3.05-2.83,1.35-.11,2.29.54,2.18,2.04-.13,1.8-1.36,2.61-2.99,2.78-1.38.15-2.18-.58-2.24-1.99Z"/>
          <path class="cls-8" d="M359.24,83.93c1.6.03,2.83.6,2.92,2.18.08,1.35-.94,2.09-2.27,2.06-1.26-.03-2.26-.7-2.51-1.99-.29-1.48.66-2.07,1.86-2.25Z"/>
          <path class="cls-6" d="M558.16,563.7c-.57,1.79-1.77,3.47-4.09,3.93-1.23.24-1.94-.64-1.56-1.74.7-2.09,2.1-3.71,4.4-4.08.81-.13,1.54.45,1.25,1.9Z"/>
          <path class="cls-5" d="M413.53,732.12c-.09.78-.01,1.98-1.13,1.73-2.47-.55-2.94-2.77-3.46-4.83-.24-.96.44-2.04,1.06-1.8,2.11.83,3.25,2.62,3.53,4.9Z"/>
          <path class="cls-8" d="M699.21,296.13c-.28,1.35-.65,2.87-2.48,2.95-1.23.05-1.54-1.07-1.5-2.08.06-1.56.57-2.98,2.42-3.05,1.23-.04,1.48,1.02,1.56,2.18Z"/>
          <path class="cls-4" d="M140.55,632.41c-.37,1.47-1.48,2.16-2.89,2.11-1.44-.05-2.67-.83-2.38-2.45.27-1.49,1.62-2.05,3.03-1.92,1.24.11,2.1.87,2.24,2.27Z"/>
          <path class="cls-11" d="M66.07,412.56c-.2,1.33-.96,2.17-2.27,2.07-1.5-.12-2.31-1.15-2.29-2.65.02-1.38.87-2.09,2.22-2.01,1.57.1,2.22,1.15,2.35,2.59Z"/>
          <path class="cls-8" d="M210.77,705.67c-1.47-.04-2.72-.63-2.67-2.23.04-1.52,1.36-2.24,2.72-2.41,1.5-.19,2.71.58,2.67,2.17-.04,1.52-1.34,2.13-2.72,2.47Z"/>
          <path class="cls-15" d="M567.99,584.9c1.52.43,1.5,1.66,1.43,2.82-.1,1.66-.27,3.74-2.12,4.04-1.58.26-1.95-1.53-1.69-2.86.31-1.56.36-3.42,2.38-4Z"/>
          <path class="cls-3" d="M224.58,670.44c-.21-1.97.05-3.83,1.57-4.02,1.98-.25,1.92,1.87,1.91,3.22,0,1.37.02,3.27-1.98,3.33-2.04.06-1.19-1.86-1.5-2.53Z"/>
          <path class="cls-3" d="M601.67,173.71c1.09.07,2.6-.03,2.59,1.49,0,2.3-2.23,2.01-3.67,2.39-1.11.3-2.67.01-2.64-1.37.04-2.17,2.14-2.08,3.72-2.51Z"/>
          <path class="cls-14" d="M214.77,618.94c-.14,1.66-.29,3.65-2.34,3.72-1.34.05-1.28-1.77-1.12-2.82.23-1.49-.1-3.74,2.23-3.73,1.53,0,1.11,1.71,1.23,2.83Z"/>
          <path class="cls-13" d="M682.17,548.89c.14,1.18-.42,2.14-1.22,1.8-2.02-.85-3.42-2.46-3.66-4.76-.08-.74.04-1.91,1.17-1.59,2.3.66,3.02,2.75,3.71,4.55Z"/>
          <path class="cls-4" d="M683.2,488.12c1.26.1,1.9.86,1.75,1.97-.21,1.58-1.11,2.81-2.82,3.02-1.32.17-1.8-.82-1.68-1.88.18-1.6,1.15-2.69,2.74-3.11Z"/>
          <path class="cls-3" d="M554.5,113.16c-1.81-.13-3.2-.62-2.95-2.23.27-1.78,1.83-2.59,3.56-2.7,1.26-.08,2.33.5,2.31,1.91-.03,2.06-1.9,2.31-2.91,3.03Z"/>
          <path class="cls-6" d="M396.47,716.46c1.2-.1,2.28.12,2.35,1.36.1,1.82-1.24,2.59-2.8,2.88-1.08.19-2.19-.33-2.28-1.41-.14-1.83,1.28-2.5,2.73-2.83Z"/>
          <path class="cls-15" d="M153.74,288.1c-2.04.06-2.46-.97-2.35-2.23.17-1.88,1.33-2.97,3.2-3.1,1.04-.08,2.05.34,1.99,1.61-.1,2.06-1.48,3.13-2.84,3.72Z"/>
          <path class="cls-1" d="M703.5,376.53c-1.32-.19-1.71-1.09-1.58-2.12.2-1.55.94-2.94,2.66-3.02,1.15-.05,1.62,1.11,1.48,2.11-.21,1.5-.83,2.83-2.56,3.04Z"/>
          <path class="cls-10" d="M561.02,532.15c-1.23,2.87-3.43,3.32-5.82,3.19-.58-.03-1.31-.81-.73-1.46,1.62-1.8,3.56-2.91,6.54-1.73Z"/>
          <path class="cls-12" d="M64.66,437.66c-.21,1.34-.94,2.26-2.31,2.05-1.39-.22-2.49-1.07-2.42-2.68.06-1.38.94-2.16,2.31-2.01,1.48.16,2.37,1.07,2.42,2.64Z"/>
          <path class="cls-3" d="M161.49,392.5c-.93,1.5-1.3,3.56-3.61,3.48-1.42-.05-1.38-1.27-1.2-2.15.34-1.7,1.43-2.99,3.19-3.24,1.22-.17,1.51.91,1.62,1.9Z"/>
          <path class="cls-8" d="M265.66,145.72c-.43,1.46-1.55,2.07-3.01,1.95-1.06-.09-2.07-.76-1.86-1.9.28-1.5,1.53-2.11,3.02-1.99,1.1.09,1.89.61,1.85,1.94Z"/>
          <path class="cls-12" d="M514.52,94.3c.15,1.47-.29,2.36-1.47,2.43-1.51.09-2.45-.84-2.64-2.31-.16-1.23.18-2.4,1.72-2.37,1.58.03,2.21,1.15,2.39,2.25Z"/>
          <path class="cls-12" d="M90.93,282.06c-1.7.07-2.21-1.07-2.29-2.47-.07-1.27.56-2.2,1.88-2.43,1.66-.28,2.43.73,2.58,2.17.15,1.49-.62,2.44-2.16,2.72Z"/>
          <path class="cls-9" d="M269.83,676.07c-.25,1.12.02,2.8-1.65,2.54-1.93-.3-1.64-2.15-1.64-3.58,0-1.3.1-3.19,1.66-2.99,2.27.29,1.14,2.67,1.63,4.03Z"/>
          <path class="cls-1" d="M573.61,616.34c1.34-.02,1.95.7,1.71,1.82-.33,1.56-1.45,2.46-3.03,2.71-.97.15-1.64-.34-1.62-1.29.04-1.92,1.37-2.77,2.94-3.25Z"/>
          <path class="cls-3" d="M147.75,355.04c-1.57.13-2.17-.48-2.08-1.69.13-1.85,1.2-3,2.96-3.38,1.45-.31,2.21.53,2,1.93-.26,1.78-1.42,2.83-2.87,3.13Z"/>
          <path class="cls-2" d="M345.78,718.14c-.35.99.15,2.66-1.13,2.44-2.42-.41-2.35-2.69-2.5-4.59-.08-.97.17-2.42,1.28-2.07,1.93.59,2.1,2.59,2.35,4.22Z"/>
          <path class="cls-12" d="M383.8,168.8c.9-.26,1.27-.51,1.49-.41,1.75.81,3.89,1.12,4.73,3.21.09.23-.52,1.07-.71,1.04-2.28-.36-4.42-1.03-5.51-3.85Z"/>
          <path class="cls-4" d="M400.28,81.82c-.36,1.39-1.28,1.91-2.58,1.66-1.23-.24-2.11-.99-2.14-2.31-.03-1.46,1.02-2.07,2.28-1.91,1.39.18,2.35,1.04,2.44,2.56Z"/>
          <path class="cls-4" d="M500.5,106.89c-1.39-.53-2.25-1.45-2.25-2.95,0-1.22.75-1.91,1.89-1.68,1.44.29,2.22,1.4,2.22,2.87,0,1.15-.66,1.81-1.86,1.76Z"/>
          <path class="cls-14" d="M532.5,571.13c-.55,1.66-.96,3.63-2.79,4.17-1.01.3-1.58-1.29-1.22-2.14.65-1.53.63-3.78,2.68-4.2,1.26-.26,1.18,1.2,1.33,2.17Z"/>
          <path class="cls-12" d="M599.35,612.45c-1.39.17-1.94-.53-1.96-1.65-.04-1.76,1.09-2.65,2.65-2.94,1.09-.2,2.02.42,1.95,1.57-.11,1.62-1.3,2.51-2.63,3.03Z"/>
          <path class="cls-11" d="M513.27,513.82c-1.38,3.36-2.6,5.15-5.63,5.59.12-3.2,1.92-4.49,5.63-5.59Z"/>
          <path class="cls-13" d="M549.5,527.14c1.02-.2,2.08.17,1.83,1.06-.56,1.92-2.33,2.59-4.17,3-.98.22-1.93-.08-1.75-1.02.41-2.15,2.57-2.31,4.09-3.04Z"/>
          <path class="cls-12" d="M675.04,467.98c1.47.21,1.39,1.32,1.22,2.22-.26,1.35-1.11,2.38-2.56,2.53-1.38.14-1.58-.93-1.46-1.92.21-1.62,1.26-2.53,2.8-2.83Z"/>
          <path class="cls-4" d="M218.13,233.64c-1.04.1-1.66-.41-1.71-1.32-.09-1.47.8-2.49,2.07-2.97,1.19-.45,1.88.38,1.85,1.48-.03,1.42-.93,2.34-2.21,2.81Z"/>
          <path class="cls-5" d="M580.23,609.29c-2.74.58-4.76-.44-6.8-2.83,3.3-.61,5.18.81,6.8,2.83Z"/>
        </g>
      </g>
    </g>
  </g>
</svg>