<?xml version="1.0" encoding="UTF-8"?>
<svg id="Layer_1" data-name="Layer 1" xmlns="http://www.w3.org/2000/svg" viewBox="0 0 1920 1300">
  <defs>
    <style>
      .cls-1 {
        opacity: .5;
      }

      .cls-2 {
        fill: red;
        stroke-width: 0px;
      }
    </style>
  </defs>
  <g class="cls-1">
    <path class="cls-2" d="M1869.03,1130.1v5.43h-5.39v-5.43c.85-.28,1.75-.43,2.7-.43s1.85.15,2.7.43Z"/>
    <path class="cls-2" d="M1869.03,1140.92v5.43c-.85.28-1.75.43-2.7.43s-1.85-.15-2.7-.43v-5.43h5.39Z"/>
    <path class="cls-2" d="M1863.64,1135.53v5.39h-5.43c-.28-.85-.43-1.75-.43-2.7s.15-1.85.43-2.7h5.43Z"/>
    <path class="cls-2" d="M1874.89,1138.22c0,.94-.15,1.85-.43,2.7h-5.43v-5.39h5.43c.28.85.43,1.75.43,2.7Z"/>
  </g>
  <g class="cls-1">
    <path class="cls-2" d="M769.84,1169.13v5.43h-5.39v-5.43c.85-.28,1.75-.43,2.7-.43s1.85.15,2.7.43Z"/>
    <path class="cls-2" d="M769.84,1179.95v5.43c-.85.28-1.75.43-2.7.43s-1.85-.15-2.7-.43v-5.43h5.39Z"/>
    <path class="cls-2" d="M764.45,1174.56v5.39h-5.43c-.28-.85-.43-1.75-.43-2.7s.15-1.85.43-2.7h5.43Z"/>
    <path class="cls-2" d="M775.7,1177.26c0,.94-.15,1.85-.43,2.7h-5.43v-5.39h5.43c.28.85.43,1.75.43,2.7Z"/>
  </g>
  <g class="cls-1">
    <path class="cls-2" d="M214.38,1236.62v5.43h-5.39v-5.43c.85-.28,1.75-.43,2.7-.43s1.85.15,2.7.43Z"/>
    <path class="cls-2" d="M214.38,1247.45v5.43c-.85.28-1.75.43-2.7.43s-1.85-.15-2.7-.43v-5.43h5.39Z"/>
    <path class="cls-2" d="M208.99,1242.05v5.39h-5.43c-.28-.85-.43-1.75-.43-2.7s.15-1.85.43-2.7h5.43Z"/>
    <path class="cls-2" d="M220.25,1244.75c0,.94-.15,1.85-.43,2.7h-5.43v-5.39h5.43c.28.85.43,1.75.43,2.7Z"/>
  </g>
  <g class="cls-1">
    <path class="cls-2" d="M63.53,1196.32v5.43h-5.39v-5.43c.85-.28,1.75-.43,2.7-.43s1.85.15,2.7.43Z"/>
    <path class="cls-2" d="M63.53,1207.14v5.43c-.85.28-1.75.43-2.7.43s-1.85-.15-2.7-.43v-5.43h5.39Z"/>
    <path class="cls-2" d="M58.13,1201.75v5.39h-5.43c-.28-.85-.43-1.75-.43-2.7s.15-1.85.43-2.7h5.43Z"/>
    <path class="cls-2" d="M69.39,1204.44c0,.94-.15,1.85-.43,2.7h-5.43v-5.39h5.43c.28.85.43,1.75.43,2.7Z"/>
  </g>
  <g class="cls-1">
    <path class="cls-2" d="M1667.34,1124.91v3.97h-3.94v-3.97c.62-.21,1.28-.32,1.97-.32s1.35.11,1.97.32Z"/>
    <path class="cls-2" d="M1667.34,1132.82v3.97c-.62.21-1.28.32-1.97.32s-1.35-.11-1.97-.32v-3.97h3.94Z"/>
    <path class="cls-2" d="M1663.4,1128.88v3.94h-3.97c-.21-.62-.32-1.28-.32-1.97s.11-1.35.32-1.97h3.97Z"/>
    <path class="cls-2" d="M1671.63,1130.85c0,.69-.11,1.35-.32,1.97h-3.97v-3.94h3.97c.21.62.32,1.28.32,1.97Z"/>
  </g>
  <g class="cls-1">
    <path class="cls-2" d="M1393.06,1242.93v3.97h-3.94v-3.97c.62-.21,1.28-.32,1.97-.32s1.35.11,1.97.32Z"/>
    <path class="cls-2" d="M1393.06,1250.83v3.97c-.62.21-1.28.32-1.97.32s-1.35-.11-1.97-.32v-3.97h3.94Z"/>
    <path class="cls-2" d="M1389.12,1246.89v3.94h-3.97c-.21-.62-.32-1.28-.32-1.97s.11-1.35.32-1.97h3.97Z"/>
    <path class="cls-2" d="M1397.35,1248.86c0,.69-.11,1.35-.32,1.97h-3.97v-3.94h3.97c.21.62.32,1.28.32,1.97Z"/>
  </g>
</svg>