<?xml version="1.0" encoding="UTF-8"?>
<svg id="Layer_1" data-name="Layer 1" xmlns="http://www.w3.org/2000/svg" viewBox="0 0 1920 1300">
  <defs>
    <style>
      .cls-1 {
        fill: red;
        stroke-width: 0px;
      }
    </style>
  </defs>
  <g>
    <path class="cls-1" d="M154.49,1127.36v10.86h-10.78v-10.86c1.69-.56,3.51-.87,5.39-.87s3.7.3,5.39.87Z"/>
    <path class="cls-1" d="M154.49,1149.01v10.86c-1.69.56-3.51.87-5.39.87s-3.7-.3-5.39-.87v-10.86h10.78Z"/>
    <path class="cls-1" d="M143.7,1138.22v10.78h-10.86c-.56-1.69-.87-3.51-.87-5.39s.3-3.7.87-5.39h10.86Z"/>
    <path class="cls-1" d="M166.22,1143.62c0,1.88-.3,3.7-.87,5.39h-10.86v-10.78h10.86c.56,1.69.87,3.51.87,5.39Z"/>
  </g>
  <g>
    <path class="cls-1" d="M544.93,1245.94v14.91h-14.81v-14.91c2.33-.77,4.82-1.19,7.4-1.19s5.08.42,7.4,1.19Z"/>
    <path class="cls-1" d="M544.93,1275.66v14.91c-2.33.77-4.82,1.19-7.4,1.19s-5.08-.42-7.4-1.19v-14.91h14.81Z"/>
    <path class="cls-1" d="M530.12,1260.85v14.81h-14.91c-.77-2.33-1.19-4.82-1.19-7.4s.42-5.08,1.19-7.4h14.91Z"/>
    <path class="cls-1" d="M561.03,1268.25c0,2.59-.42,5.08-1.19,7.4h-14.91v-14.81h14.91c.77,2.33,1.19,4.82,1.19,7.4Z"/>
  </g>
  <g>
    <path class="cls-1" d="M432.51,1127.36v10.86h-10.78v-10.86c1.69-.56,3.51-.87,5.39-.87s3.7.3,5.39.87Z"/>
    <path class="cls-1" d="M432.51,1149.01v10.86c-1.69.56-3.51.87-5.39.87s-3.7-.3-5.39-.87v-10.86h10.78Z"/>
    <path class="cls-1" d="M421.72,1138.22v10.78h-10.86c-.56-1.69-.87-3.51-.87-5.39s.3-3.7.87-5.39h10.86Z"/>
    <path class="cls-1" d="M444.24,1143.62c0,1.88-.3,3.7-.87,5.39h-10.86v-10.78h10.86c.56,1.69.87,3.51.87,5.39Z"/>
  </g>
  <g>
    <path class="cls-1" d="M870.78,1132.52v9.03h-8.97v-9.03c1.41-.47,2.92-.72,4.49-.72s3.08.25,4.49.72Z"/>
    <path class="cls-1" d="M870.78,1150.53v9.03c-1.41.47-2.92.72-4.49.72s-3.08-.25-4.49-.72v-9.03h8.97Z"/>
    <path class="cls-1" d="M861.81,1141.55v8.97h-9.03c-.47-1.41-.72-2.92-.72-4.49s.25-3.08.72-4.49h9.03Z"/>
    <path class="cls-1" d="M880.53,1146.04c0,1.57-.25,3.08-.72,4.49h-9.03v-8.97h9.03c.47,1.41.72,2.92.72,4.49Z"/>
  </g>
  <g>
    <path class="cls-1" d="M1236.82,1067.35v10.86h-10.78v-10.86c1.69-.56,3.51-.87,5.39-.87s3.7.3,5.39.87Z"/>
    <path class="cls-1" d="M1236.82,1089v10.86c-1.69.56-3.51.87-5.39.87s-3.7-.3-5.39-.87v-10.86h10.78Z"/>
    <path class="cls-1" d="M1226.04,1078.21v10.78h-10.86c-.56-1.69-.87-3.51-.87-5.39s.3-3.7.87-5.39h10.86Z"/>
    <path class="cls-1" d="M1248.55,1083.6c0,1.88-.3,3.7-.87,5.39h-10.86v-10.78h10.86c.56,1.69.87,3.51.87,5.39Z"/>
  </g>
  <g>
    <path class="cls-1" d="M1124.64,1190.2v10.86h-10.78v-10.86c1.69-.56,3.51-.87,5.39-.87s3.7.3,5.39.87Z"/>
    <path class="cls-1" d="M1124.64,1211.84v10.86c-1.69.56-3.51.87-5.39.87s-3.7-.3-5.39-.87v-10.86h10.78Z"/>
    <path class="cls-1" d="M1113.86,1201.05v10.78h-10.86c-.56-1.69-.87-3.51-.87-5.39s.3-3.7.87-5.39h10.86Z"/>
    <path class="cls-1" d="M1136.37,1206.45c0,1.88-.3,3.7-.87,5.39h-10.86v-10.78h10.86c.56,1.69.87,3.51.87,5.39Z"/>
  </g>
  <g>
    <path class="cls-1" d="M1832.76,1011.11v10.86h-10.78v-10.86c1.69-.56,3.51-.87,5.39-.87s3.7.3,5.39.87Z"/>
    <path class="cls-1" d="M1832.76,1032.76v10.86c-1.69.56-3.51.87-5.39.87s-3.7-.3-5.39-.87v-10.86h10.78Z"/>
    <path class="cls-1" d="M1821.98,1021.97v10.78h-10.86c-.56-1.69-.87-3.51-.87-5.39s.3-3.7.87-5.39h10.86Z"/>
    <path class="cls-1" d="M1844.49,1027.36c0,1.88-.3,3.7-.87,5.39h-10.86v-10.78h10.86c.56,1.69.87,3.51.87,5.39Z"/>
  </g>
  <g>
    <path class="cls-1" d="M1727.26,1219.94v10.86h-10.78v-10.86c1.69-.56,3.51-.87,5.39-.87s3.7.3,5.39.87Z"/>
    <path class="cls-1" d="M1727.26,1241.58v10.86c-1.69.56-3.51.87-5.39.87s-3.7-.3-5.39-.87v-10.86h10.78Z"/>
    <path class="cls-1" d="M1716.47,1230.8v10.78h-10.86c-.56-1.69-.87-3.51-.87-5.39s.3-3.7.87-5.39h10.86Z"/>
    <path class="cls-1" d="M1738.98,1236.19c0,1.88-.3,3.7-.87,5.39h-10.86v-10.78h10.86c.56,1.69.87,3.51.87,5.39Z"/>
  </g>
</svg>