<?xml version="1.0" encoding="UTF-8"?>
<svg xmlns="http://www.w3.org/2000/svg" viewBox="0 0 870 670">
  <defs>
    <style>
      .cls-1 {
        fill: #aeaeae;
      }

      .cls-1, .cls-2, .cls-3, .cls-4, .cls-5, .cls-6, .cls-7, .cls-8, .cls-9, .cls-10, .cls-11, .cls-12, .cls-13, .cls-14, .cls-15 {
        stroke-width: 0px;
      }

      .cls-2 {
        fill: #8c8c8c;
      }

      .cls-3 {
        fill: #696969;
      }

      .cls-4 {
        fill: #979797;
      }

      .cls-5 {
        fill: #5e5e5e;
      }

      .cls-6 {
        fill: #7a7a7a;
      }

      .cls-7 {
        fill: #b2b2b2;
      }

      .cls-8 {
        fill: #7d7d7d;
      }

      .cls-9 {
        fill: #aaa;
      }

      .cls-16 {
        mix-blend-mode: darken;
      }

      .cls-10 {
        fill: #a0a0a0;
      }

      .cls-11 {
        fill: #8f8f8f;
      }

      .cls-17 {
        isolation: isolate;
      }

      .cls-12 {
        fill: #a3a3a3;
      }

      .cls-13 {
        fill: #868686;
      }

      .cls-14 {
        fill: #777;
      }

      .cls-15 {
        fill: #727272;
      }
    </style>
  </defs>
  <g class="cls-17">
    <g id="Layer_1" data-name="Layer 1">
      <g id="z5jChR.tif" class="cls-16">
        <g>
          <path class="cls-15" d="M465.78,514.34c.03,1.76-.11,2.91-1.56,3.33-.96.28-1.7-.15-2.36-.7-.82-.68-1.04-1.61-.67-2.62.44-1.2,1.44-1.13,2.42-.98,1,.15,1.98,1.43,2.85-.47.75-1.62,2.28-1.42,3.53-.4.87.71,1.48,1.75.68,2.82-1.07,1.43-2.38,1.15-3.64.16-.32-.26-.61-.55-1.26-1.14Z"/>
          <path class="cls-8" d="M625.54,285.78c-1.33-.24-2.53-.67-2.3-1.98.48-2.79,3.29-1.7,4.95-2.54.97-.49,2.32.36,2.2,1.64-.3,3.19-3.68,1.28-4.85,2.88Z"/>
          <path class="cls-15" d="M184.16,461.21c-.76,2.29-3.35,1.28-4.73,2.6-.38.36-1.1-.44-1.36-1.08-.37-.9-.11-2.18.48-2.35,1.85-.53,3.48-2.45,5.69-1.18-.03.67-.05,1.34-.08,2.01Z"/>
          <path class="cls-3" d="M523.49,511.04c-.24,1.3-.84,2.33-2.3,2.2-1.45-.13-2.41-1.11-2.45-2.57-.04-1.38.86-2.24,2.25-2.19,1.53.06,2.19,1.19,2.5,2.56Z"/>
          <path class="cls-12" d="M575.47,445.05c-.03-.43-.02-.87-.1-1.29-.22-1.19.06-2.14,1.18-2.73.87-.46,1.68-.25,2.41.33,1.37,1.08,1.12,2.42.54,3.8-1.37,1.06-2.69,0-4.03-.11Z"/>
          <path class="cls-4" d="M525.58,482.2c-1.5-.26-2.57-.91-2.55-2.48.02-1.36.78-2.26,2.23-2.22,1.49.04,2.46.83,2.49,2.4.04,1.47-.96,2.03-2.17,2.31Z"/>
          <path class="cls-11" d="M557.45,487.04c-1.71-.12-2.58-1.07-2.68-2.69-.08-1.35.84-2.07,2-2.04,1.58.03,2.61,1.02,2.67,2.66.05,1.28-.78,1.92-1.98,2.07Z"/>
          <path class="cls-12" d="M595.71,435.36c1.42.2,2.47.94,2.6,2.41.11,1.19-.58,2.17-1.87,2.17-1.59,0-2.68-.86-2.78-2.54-.07-1.32.79-1.9,2.04-2.04Z"/>
          <path class="cls-8" d="M465.36,538.49c1.34.17,2.29.9,2.42,2.43.11,1.25-.5,2.23-1.75,2.28-1.63.06-2.61-1.02-2.73-2.6-.1-1.23.61-2.02,2.06-2.1Z"/>
          <path class="cls-5" d="M576.96,429.6c.32-.03.64-.1.96-.08,1.68.06,2.61,1.01,2.65,2.61.03,1.15-.53,2.14-1.89,2.12-1.65-.03-2.59-.87-2.5-2.62.26-.67.52-1.35.79-2.02Z"/>
          <path class="cls-13" d="M622.06,375.75c-.01,1.43-.72,2.2-1.97,2.16-1.59-.05-2.64-.99-2.73-2.6-.06-1.08.68-1.83,1.81-1.86,1.63-.05,2.57.84,2.89,2.3Z"/>
          <path class="cls-5" d="M585.75,446.44c-1.35-.23-2.37-.88-2.37-2.44,0-1.28.78-2.04,2.01-1.98,1.44.07,2.41.98,2.47,2.43.06,1.26-.85,1.85-2.11,1.99Z"/>
          <path class="cls-14" d="M300.62,55.49c-1.06-.11-2.06-.59-1.82-1.52.32-1.25.51-2.92,2.34-3.1.99-.09,1.9.48,1.72,1.45-.25,1.31-.71,2.73-2.24,3.16Z"/>
          <path class="cls-9" d="M550.29,420.64c-.18,1.29-.73,2.34-2.2,2.3-1.49-.04-2.05-1.2-2.02-2.46.03-1.26.63-2.44,2.12-2.36,1.41.08,1.92,1.22,2.1,2.51Z"/>
          <path class="cls-3" d="M634.25,322.94c.28-.77-.18-1.71.58-2.39,1.04-.91,2.12-.93,3.2-.17.87.61,1.33,1.51.82,2.5-.56,1.09-1.61,1.33-2.74.93-.67-.24-1.28-.62-1.92-.94l.06.07Z"/>
          <path class="cls-8" d="M406.53,533.25c1.66.37,2.57,1.33,2.63,2.89.04,1.13-.74,1.89-1.82,1.71-1.47-.25-2.52-1.19-2.52-2.82,0-1.12.69-1.71,1.72-1.77Z"/>
          <path class="cls-12" d="M362.99,554.44c-.11,1.16-.46,2.27-1.77,2.28-1.58.01-2.16-1.18-2.26-2.58-.08-1.1.41-1.97,1.54-2.07,1.63-.14,2.13,1.09,2.49,2.38Z"/>
          <path class="cls-13" d="M595.59,419.22c1.3.32,2.29.9,2.32,2.32.02,1.29-.78,2.03-2,2.01-1.47-.03-2.45-.94-2.44-2.42,0-1.26,1.03-1.75,2.13-1.92Z"/>
          <path class="cls-3" d="M387.09,555.22c-1.43-.2-1.97-1.19-1.92-2.47.05-1.21.83-2.08,2.04-1.98,1.33.11,2.03,1.08,1.92,2.46-.1,1.21-.74,1.94-2.03,1.99Z"/>
          <path class="cls-13" d="M355.45,98.48c-1.27-1.95-3.15-1.88-4.91-2.33-.88-.23-.12-1.33.41-1.8.79-.7,2.14-1.71,2.67-.47.58,1.35,1.45,2.19,2.38,3.16.54.56-.11.86-.55,1.45Z"/>
          <path class="cls-12" d="M637.57,329.54c-.12,1.4-.96,1.96-2.18,1.87-1.28-.1-2.31-.76-2.43-2.12-.11-1.3.74-2.01,1.99-1.96,1.41.05,2.44.73,2.62,2.22Z"/>
          <path class="cls-4" d="M634.19,322.86c.04,1.23.03,2.41-1.56,2.71-1.21.22-2.13-.29-2.79-1.2-.54-.75-.6-1.64.18-2.33.94-.84,1.96-.7,2.95-.04.44.29.85.62,1.28.94,0,0-.06-.07-.06-.07Z"/>
          <path class="cls-1" d="M407.56,554.63c.24-1.23.66-2.31,1.99-2.16,1.44.16,2.2,1.25,2.23,2.66.02,1.2-.63,2.09-1.94,2-1.54-.11-2.06-1.26-2.28-2.5Z"/>
          <path class="cls-13" d="M365.38,525.55c-.03.95-.3,1.94-1.35,1.85-1.41-.13-2.27-1.18-2.44-2.59-.11-.85-.06-1.94,1.11-1.95,1.68,0,2.34,1.25,2.68,2.69Z"/>
          <path class="cls-5" d="M582.63,408.64c1.19.2,2.02.93,1.96,2.11-.05,1.14-.8,1.98-2.11,1.88-1.25-.1-1.99-.94-1.97-2.09.03-1.17.82-1.91,2.11-1.9Z"/>
          <path class="cls-13" d="M576.96,429.6c-.26.67-.52,1.35-.79,2.02-.34-.23-.66-.62-1.01-.65-1.46-.14-2.51-.78-2.46-2.33.03-1.02.78-1.79,1.9-1.77,1.73.03,2.39,1.11,2.36,2.73Z"/>
          <path class="cls-4" d="M485.27,437.13c-.33,1.43-1.35,2.08-2.77,2.06-1.04-.02-2-.52-1.92-1.71.1-1.6,1.35-2.08,2.73-2.09,1.03,0,1.87.45,1.97,1.74Z"/>
          <path class="cls-1" d="M637.31,255.28c-.28,1.31-1.16,1.84-2.35,1.74-1.3-.11-2.36-.76-2.25-2.22.08-1.13,1.02-1.62,2.1-1.56,1.3.07,2.24.68,2.5,2.04Z"/>
          <path class="cls-2" d="M540.73,443.76c-.23,1.13-.86,1.95-2.14,1.84-1.05-.08-1.85-.71-1.81-1.84.05-1.4.93-2.14,2.31-2.04,1.14.08,1.61.9,1.64,2.04Z"/>
          <path class="cls-1" d="M422.07,536.78c1.28.13,1.91,1.02,1.92,2.16,0,1.2-.82,2.09-2.02,2.06-1.19-.03-1.93-.84-1.84-2.16.08-1.21.54-2.06,1.95-2.06Z"/>
          <path class="cls-9" d="M636.33,308.56c-.2,1.26-1.01,1.9-2.23,1.82-1.31-.08-2.34-.82-2.22-2.24.1-1.28,1.14-1.77,2.35-1.66,1.2.11,1.97.77,2.09,2.07Z"/>
          <path class="cls-8" d="M329.07,531.18c-1.63-.11-1.99-1.44-2.25-2.66-.19-.87.27-1.86,1.25-1.94,1.62-.13,2.12,1.21,2.41,2.46.24,1.05-.18,1.89-1.41,2.14Z"/>
          <path class="cls-6" d="M372.14,548.49c-.03,1.27-.67,2.19-1.86,2.31-1.25.12-2.01-.74-2.04-1.99-.03-1.19.5-2.16,1.8-2.28,1.34-.12,1.86.83,2.1,1.96Z"/>
          <path class="cls-12" d="M271.39,532.08c-.1.8-.51,1.85-1.86,1.74-1.3-.11-1.72-1.16-1.64-2.36.08-1.16.51-2.3,1.85-2.14,1.17.14,1.72,1.17,1.65,2.76Z"/>
          <path class="cls-15" d="M601.82,279.7c-1.37-.36-2.73-.81-2.89-2.53-.1-1.05.76-1.2,1.53-1.17,1.57.06,2.71.86,2.93,2.44.13.9-.73,1.19-1.57,1.27Z"/>
          <path class="cls-14" d="M476.14,53.16c-1.18.08-1.91-.34-1.9-1.38.01-1.41.96-2.07,2.28-2.15,1.02-.06,1.67.55,1.57,1.55-.11,1.19-.92,1.85-1.95,1.98Z"/>
          <path class="cls-2" d="M413.94,509.99c-.22,1.19-.84,2.03-2.14,1.96-1.16-.06-1.72-.79-1.58-1.97.14-1.13.87-1.76,1.94-1.82,1.16-.06,1.77.64,1.78,1.82Z"/>
          <path class="cls-5" d="M575.47,445.05c1.34.11,2.66,1.17,4.03.11.54,1.66.48,3.31-1.63,3.33-2,.03-3.22-1.16-2.4-3.44Z"/>
          <path class="cls-1" d="M632.8,233.84c-.35,1.22-1.19,1.84-2.4,1.74-1.02-.09-1.99-.57-1.96-1.76.03-1.3.99-1.94,2.18-1.91,1.14.04,2.08.58,2.19,1.93Z"/>
          <path class="cls-1" d="M237.04,518.91c-.09,1.27-.34,2.3-1.73,2.37-1.44.07-1.79-.87-1.73-2.07.06-1.18.49-2.1,1.85-2.08,1.22.02,1.6.84,1.61,1.78Z"/>
          <path class="cls-4" d="M184.16,461.21c.03-.67.05-1.34.08-2.01.63-.96,1.1-2.4,2.61-1.79,1.06.42.98,1.63.71,2.57-.54,1.9-2.01,1.52-3.4,1.23Z"/>
          <path class="cls-13" d="M519.65,391.67c-.26,1.08-.23,2.33-1.59,2.12-1.43-.22-1.64-1.49-1.65-2.72-.02-1.04.24-2.12,1.5-1.97,1.49.18,1.34,1.67,1.75,2.56Z"/>
          <path class="cls-5" d="M344.21,507.04c-1.37-.5-2.03-1.61-2.08-3.11-.02-.65.18-1.49.96-1.36,1.58.25,2.2,1.51,2.38,2.97.1.78-.07,1.52-1.27,1.51Z"/>
          <path class="cls-1" d="M554.25,455.7c-1.18-.12-1.98-.76-2-2.04-.02-1.28.72-2.07,2-2.02,1.19.05,2.05.71,2.08,2.02.03,1.32-.76,1.94-2.08,2.04Z"/>
          <path class="cls-10" d="M330.66,41.34c-.17,1.11-.8,1.91-2.07,1.97-1.07.06-1.67-.65-1.64-1.59.05-1.2.83-2,2.07-2.06,1-.05,1.62.5,1.63,1.67Z"/>
          <path class="cls-1" d="M621.69,196.17c-.26,1.21-1.06,1.82-2.28,1.78-1.02-.04-2.02-.46-2.14-1.58-.14-1.37.94-1.87,2.08-1.97,1.2-.11,2.06.47,2.34,1.77Z"/>
          <path class="cls-8" d="M615.43,196.55c-.36,1.53-1.47,1.68-2.53,1.67-1.17,0-2.24-.55-2.06-1.88.16-1.2,1.19-1.73,2.4-1.56,1.11.16,2.01.66,2.19,1.77Z"/>
          <path class="cls-1" d="M426.61,482.28c-.02-.96.47-1.54,1.35-1.41,1.45.2,2.7.88,3,2.46.17.86-.34,1.5-1.3,1.36-1.46-.21-2.62-.89-3.05-2.4Z"/>
          <path class="cls-6" d="M619.5,214.9c1.1.06,1.91.49,1.87,1.72-.04,1.31-.92,1.97-2.09,1.99-1.01.02-1.96-.53-1.91-1.7.06-1.22.94-1.84,2.13-2Z"/>
          <path class="cls-13" d="M208.4,498.57c.06,1.29-.65,2.16-1.8,2.34-1.19.19-1.69-.7-1.73-1.83-.05-1.28.65-2.19,1.79-2.34,1.09-.14,1.78.64,1.73,1.84Z"/>
          <path class="cls-4" d="M211.9,501.66c1.41.18,1.79,1,1.72,2.08-.08,1.21-.71,2.1-1.98,2.08-1.19-.01-1.6-.88-1.54-2.01.06-1.29.86-1.85,1.8-2.16Z"/>
          <path class="cls-11" d="M378,535.82c-.18,1.18-.8,2.09-2.02,2.12-1.07.03-1.84-.74-1.79-1.87.05-1.17.67-2.09,1.97-2.12,1.17-.03,1.68.78,1.83,1.87Z"/>
          <path class="cls-4" d="M626.67,302.84c-.13,1.24-.9,1.85-2.14,1.84-1.08,0-1.94-.5-2.03-1.65-.11-1.31.79-2.01,1.96-2.1,1.2-.09,2.03.56,2.21,1.9Z"/>
          <path class="cls-15" d="M564.74,400.39c-1.3.04-1.71-.84-1.69-1.86.02-1.1.81-1.75,1.89-1.8,1.11-.05,1.86.54,1.85,1.72,0,1.3-.8,1.89-2.04,1.94Z"/>
          <path class="cls-15" d="M226.82,514.13c-1.21-.17-1.65-.99-1.62-2.03.03-1.32.72-2.37,2.09-2.29,1.1.06,1.48,1.06,1.37,2.16-.12,1.15-.5,2.08-1.84,2.17Z"/>
          <path class="cls-1" d="M472.56,416.43c.86.05,2.05-.01,1.89,1.4-.14,1.26-1.31,1.69-2.38,1.8-.99.11-2.18-.23-2.18-1.4,0-1.47,1.26-1.81,2.66-1.81Z"/>
          <path class="cls-7" d="M195.38,120.58c-.29,1.05-.96,1.86-2.19,1.79-.95-.05-1.6-.69-1.43-1.71.19-1.16.88-1.96,2.16-1.87.98.07,1.51.68,1.47,1.8Z"/>
          <path class="cls-12" d="M421.13,489.92c.05,1.07-.32,1.6-1.3,1.5-1.57-.16-2.57-1.06-2.86-2.57-.16-.84.36-1.53,1.3-1.37,1.46.24,2.53,1.05,2.85,2.44Z"/>
          <path class="cls-14" d="M112.08,334.32c-.16,1.11-.8,1.71-1.9,1.77-1.01.05-1.67-.51-1.67-1.49,0-1.24.79-1.96,2.03-1.92.96.03,1.53.63,1.54,1.65Z"/>
          <path class="cls-8" d="M482.84,398.15c-.19,1.22-.5,2.53-2.05,2.77-.9.14-1.34-.63-1.34-1.46,0-1.39.52-2.63,1.91-3.03,1.18-.34,1.33.74,1.48,1.72Z"/>
          <path class="cls-9" d="M127.61,232.52c1.12.08,1.58.78,1.46,1.75-.15,1.27-1.09,1.88-2.26,1.85-.83-.02-1.35-.69-1.29-1.57.09-1.29.9-1.88,2.09-2.03Z"/>
          <path class="cls-3" d="M223.93,72.11c-.09,1.1-.65,1.83-1.75,1.9-.96.07-1.65-.42-1.68-1.46-.04-1.14.67-1.8,1.71-1.91.95-.1,1.55.51,1.72,1.47Z"/>
          <path class="cls-10" d="M425.69,37.68c-.12,1.27-.94,1.93-2.09,2.07-1.02.13-1.69-.56-1.66-1.52.04-1.2.83-1.96,2.06-2.07,1.05-.09,1.56.53,1.69,1.51Z"/>
          <path class="cls-5" d="M133.21,391.83c-.2,1.31-.85,2.17-2.06,2.19-.91.02-1.69-.55-1.47-1.64.22-1.06.65-2.05,2-2.09,1.14-.03,1.36.79,1.53,1.54Z"/>
          <path class="cls-6" d="M469.71,391.79c-.13.96-.36,2.34-1.98,2.45-.95.06-1.09-.99-.97-1.7.22-1.22.28-2.77,1.99-2.82.94-.03,1,.93.95,2.07Z"/>
          <path class="cls-6" d="M137.96,350.36c1.01.23,1.45.98,1.19,1.88-.29,1.01-.78,2.03-2.15,1.98-.96-.03-1.36-.59-1.22-1.46.19-1.23.74-2.22,2.18-2.4Z"/>
          <path class="cls-6" d="M477.41,60.21c1.05.09,1.74.64,1.64,1.63-.12,1.29-1.18,1.74-2.32,1.8-1.01.06-1.68-.5-1.57-1.56.14-1.3,1.21-1.63,2.24-1.88Z"/>
          <path class="cls-4" d="M390.74,26.13c.96.11,1.64.57,1.64,1.6,0,1.1-.56,1.85-1.72,1.87-.99.02-1.62-.56-1.64-1.57-.03-1.13.6-1.76,1.72-1.9Z"/>
          <path class="cls-5" d="M537.96,414.43c1.17,0,1.52.76,1.48,1.72-.06,1.14-.77,1.77-1.9,1.8-1.25.03-1.77-.7-1.62-1.88.15-1.16.94-1.62,2.04-1.64Z"/>
          <path class="cls-1" d="M460.75,384.6c.88-.02,1.45.26,1.38,1.08-.13,1.47-1.12,2.27-2.45,2.62-.92.24-1.54-.3-1.39-1.2.23-1.41,1.27-2.13,2.46-2.49Z"/>
          <path class="cls-3" d="M298.96,39.23c-.92-.19-1.64-.65-1.57-1.68.07-1.13.79-1.74,1.93-1.64,1.02.09,1.51.77,1.4,1.76-.11.99-.83,1.42-1.76,1.55Z"/>
          <path class="cls-2" d="M110.8,243.34c1.18.09,1.8.62,1.83,1.61.03,1.12-.63,1.8-1.73,1.89-1.17.1-1.87-.61-1.83-1.71.04-1.07.83-1.66,1.73-1.79Z"/>
          <path class="cls-13" d="M108.99,306.05c-.22,1.07-.84,1.79-1.92,1.79-1.11,0-1.8-.66-1.58-1.86.19-1.07.93-1.66,2.02-1.61,1.01.05,1.49.67,1.47,1.67Z"/>
          <path class="cls-5" d="M530.89,79.14c-.26,1.15-.92,1.89-2.19,1.94-1.01.04-1.81-.41-1.71-1.45.11-1.17.88-1.95,2.15-1.99.99-.03,1.67.37,1.75,1.5Z"/>
          <path class="cls-10" d="M113.95,230.94c-1.04-.2-1.63-.81-1.57-1.78.06-1.13.85-1.78,1.93-1.74.98.04,1.55.75,1.51,1.75-.05,1.18-.88,1.62-1.87,1.77Z"/>
          <path class="cls-13" d="M588.33,202.94c-.08,1.06-.83,1.5-1.72,1.48-1.31-.03-2.7-.33-2.87-1.91-.11-1.06.93-1.31,1.82-1.29,1.22.03,2.31.37,2.77,1.71Z"/>
          <path class="cls-10" d="M137.39,184.64c-.05,1.14-.68,1.87-1.74,2.02-1.15.16-1.91-.5-1.88-1.68.04-1.11.79-1.78,1.88-1.87,1.02-.08,1.58.53,1.74,1.52Z"/>
          <path class="cls-3" d="M110.64,256.52c-.07,1.08-.68,1.76-1.75,1.87-1.01.1-1.66-.55-1.74-1.48-.09-1.1.56-1.81,1.7-1.89,1-.07,1.55.53,1.79,1.5Z"/>
          <path class="cls-7" d="M360.36,27.58c-.2,1.05-.77,1.77-1.92,1.69-.98-.07-1.55-.7-1.51-1.71.05-1.16.79-1.79,1.87-1.73.94.05,1.49.73,1.56,1.74Z"/>
          <path class="cls-6" d="M556.19,413.5c-.25,1.14-.96,1.8-2.23,1.75-1.02-.04-1.65-.64-1.65-1.61,0-1.23.8-2.03,2.02-2.03,1.07,0,1.79.64,1.85,1.89Z"/>
          <path class="cls-7" d="M235.74,65.77c-.07,1.18-.86,1.73-1.88,1.76-.95.03-1.62-.57-1.61-1.6.02-1.16.77-1.73,1.85-1.77,1.04-.04,1.48.67,1.64,1.6Z"/>
          <path class="cls-14" d="M538.08,105.67c-1.08.01-1.62-.59-1.65-1.56-.03-1.08.53-1.86,1.65-1.97,1.03-.1,1.61.57,1.64,1.53.03,1.08-.62,1.75-1.65,2Z"/>
          <path class="cls-3" d="M157.63,400.3c-1.28.18-1.57-.57-1.63-1.33-.1-1.28.36-2.36,1.72-2.7,1.03-.25,1.31.6,1.4,1.35.15,1.32-.5,2.22-1.49,2.68Z"/>
          <path class="cls-10" d="M252.82,122.39c-.78.01-1.56-.21-1.43-.95.29-1.64,1.84-1.84,3.11-2.23.65-.2,1.47.05,1.33.85-.29,1.62-1.98,1.65-3.01,2.33Z"/>
          <path class="cls-11" d="M581.08,135.22c-.14,1.29-1.01,1.86-2.17,1.88-.95.01-1.63-.55-1.54-1.61.11-1.28.95-1.85,2.15-1.88,1.06-.03,1.5.62,1.55,1.61Z"/>
          <path class="cls-1" d="M509.92,65.8c-.42,1.18-1.19,1.85-2.41,1.73-.99-.1-1.63-.75-1.34-1.75.31-1.1,1.13-1.85,2.38-1.69.96.12,1.53.69,1.37,1.71Z"/>
          <path class="cls-14" d="M465.81,434.95c.88.15,1.41.64,1.22,1.55-.22,1.08-.98,1.69-2.08,1.71-.93.01-1.41-.56-1.21-1.49.23-1.08.99-1.62,2.07-1.77Z"/>
          <path class="cls-8" d="M513.06,77.23c-.46,1.12-1.04,1.91-2.34,1.87-.93-.03-1.85-.19-1.8-1.27.07-1.37,1.12-1.98,2.39-2.04.99-.05,1.49.63,1.75,1.45Z"/>
          <path class="cls-8" d="M424,88.15c-.48,1.39-1.37,2-2.67,2.03-.83.02-1.63-.23-1.41-1.2.26-1.15,1.26-1.63,2.39-1.74.81-.08,1.42.17,1.69.91Z"/>
          <path class="cls-3" d="M161.57,215.64c-.08.9-.6,1.79-1.83,1.99-.8.13-1.58-.06-1.61-1.07-.04-1.33.56-2.27,1.98-2.44.89-.11,1.44.3,1.47,1.53Z"/>
          <path class="cls-2" d="M366.09,40.78c-.01,1-.56,1.62-1.52,1.63-.92,0-1.6-.55-1.69-1.54-.07-.81.22-1.48,1.14-1.6,1.13-.14,1.77.44,2.06,1.51Z"/>
          <path class="cls-3" d="M385.48,30.5c-.06.99-.52,1.68-1.55,1.75-1.04.07-1.64-.55-1.72-1.54-.08-1.03.55-1.63,1.52-1.75,1.09-.13,1.51.62,1.75,1.53Z"/>
          <path class="cls-5" d="M270.7,479.92c1.5.33,1.62,1.47,1.78,2.49.15,1-.12,2.16-1.29,2.12-1.09-.04-1.38-1.22-1.4-2.21-.01-.91-.05-1.92.91-2.41Z"/>
          <path class="cls-7" d="M211.32,479.85c.97.22,1.62.71,1.42,1.8-.2,1.12-.96,1.71-2.07,1.63-1.01-.07-1.59-.7-1.42-1.75.18-1.14,1.01-1.58,2.07-1.68Z"/>
          <path class="cls-13" d="M219.98,476.3c-.12,1.12-.88,1.65-1.92,1.74-.84.07-1.52-.41-1.57-1.26-.07-1.13.64-1.79,1.72-1.93,1-.12,1.62.38,1.76,1.45Z"/>
          <path class="cls-7" d="M285.45,44.5c-.98-.13-1.65-.66-1.65-1.65,0-.96.57-1.65,1.58-1.69,1.15-.04,1.88.61,1.82,1.76-.05.99-.8,1.45-1.75,1.57Z"/>
          <path class="cls-6" d="M121.48,381.18c-.83-.24-1.74-.55-1.54-1.66.2-1.14.9-1.99,2.18-1.98.9.01,1.41.74,1.41,1.5,0,1.24-.82,1.92-2.05,2.14Z"/>
          <path class="cls-1" d="M186.29,477.13c1.04.15,1.57.81,1.52,1.73-.06,1.18-.75,2.01-1.99,2.03-.99.01-1.6-.68-1.52-1.63.1-1.16.88-1.86,1.99-2.13Z"/>
          <path class="cls-3" d="M212.69,165.21c-.3,1.16-.88,2.13-2.22,2.31-.95.13-1.43-.45-1.3-1.32.17-1.11.79-1.96,1.99-2.14.82-.12,1.48.11,1.53,1.15Z"/>
          <path class="cls-10" d="M279.1,521.42c-.29,1.31-.96,2.2-2.13,2.18-1.04-.01-1.8-.79-1.57-1.93.22-1.09.86-1.96,2.18-1.84,1.04.09,1.31.88,1.51,1.58Z"/>
          <path class="cls-11" d="M212.56,122.81c-.81-.06-1.59-.32-1.54-1.24.07-1.3.81-2.19,2.18-2.28.92-.06,1.43.61,1.36,1.41-.09,1.15-.73,1.98-2,2.11Z"/>
          <path class="cls-11" d="M599.56,191.99c-.85-.18-1.73-.47-1.69-1.51.04-1.2.85-1.98,2.01-2.07.91-.07,1.73.49,1.71,1.47-.02,1.21-.88,1.84-2.04,2.11Z"/>
          <path class="cls-1" d="M572.58,197.29c1.21.08,2.5.4,2.7,1.71.17,1.14-1.1,1.13-1.9,1.16-1.11.04-2.28-.23-2.51-1.49-.21-1.14.8-1.3,1.71-1.38Z"/>
          <path class="cls-10" d="M415.39,33.24c-.94-.18-1.58-.7-1.57-1.69,0-1.14.72-1.78,1.8-1.82,1.04-.04,1.52.72,1.55,1.66.03,1.15-.67,1.72-1.77,1.86Z"/>
          <path class="cls-14" d="M123.19,344.26c-.04.97-.6,1.5-1.62,1.54-1.01.04-1.69-.44-1.76-1.47-.07-1.06.63-1.59,1.6-1.63.96-.03,1.65.42,1.78,1.56Z"/>
          <path class="cls-6" d="M181.52,107.6c1.05.07,1.68.57,1.63,1.6-.05.95-.6,1.59-1.59,1.7-1.03.12-1.7-.41-1.74-1.4-.04-1.1.65-1.74,1.7-1.9Z"/>
          <path class="cls-3" d="M436.49,52.96c-.96-.17-1.45-.79-1.47-1.75-.01-.83.36-1.52,1.25-1.53,1.16,0,1.72.75,1.66,1.86-.05.83-.52,1.36-1.44,1.41Z"/>
          <path class="cls-12" d="M292.63,514.26c.88.26,1.65.65,1.44,1.74-.19,1.03-.85,1.79-1.91,1.82-1.18.04-1.7-.8-1.57-1.9.14-1.13,1.03-1.51,2.04-1.66Z"/>
          <path class="cls-11" d="M113.13,242.21c-1.09-.03-1.79-.46-1.89-1.46-.09-.96.4-1.71,1.37-1.85,1.11-.16,1.87.41,1.94,1.58.06,1.03-.67,1.47-1.42,1.73Z"/>
          <path class="cls-3" d="M160.67,299.35c.88-.02,1.35.39,1.29,1.15-.1,1.37-.67,2.52-2.19,2.73-.85.12-1.04-.6-1.02-1.29.03-1.34.81-2.13,1.92-2.59Z"/>
          <path class="cls-5" d="M478.91,75.08c1.44,0,2.06.43,1.99,1.33-.11,1.47-1.19,1.93-2.47,1.92-.77,0-1.62-.36-1.49-1.29.19-1.35,1.27-1.83,1.97-1.96Z"/>
          <path class="cls-11" d="M115.24,296.35c-.37,1.35-1.03,2.19-2.3,2.08-1-.09-1.57-.86-1.33-1.84.24-.98.9-1.75,2.05-1.74,1.08,0,1.4.78,1.58,1.49Z"/>
          <path class="cls-7" d="M582.19,285.41c-.21,1.23-.92,1.85-1.97,1.92-1.09.07-1.52-.69-1.42-1.67.11-1.09.81-1.76,1.91-1.8,1.11-.05,1.42.72,1.48,1.56Z"/>
          <path class="cls-14" d="M521.05,380.09c.98.06,1.47.57,1.32,1.45-.17,1.01-.74,1.76-1.85,1.89-.91.1-1.5-.37-1.43-1.26.1-1.16.82-1.9,1.96-2.09Z"/>
          <path class="cls-7" d="M151.83,395.31c-1.04-.05-1.71-.58-1.77-1.53-.06-1.07.76-1.45,1.69-1.45.95,0,1.69.48,1.72,1.49.03,1.06-.78,1.39-1.65,1.49Z"/>
          <path class="cls-7" d="M126.33,202.16c-.18.93-.69,1.61-1.69,1.61-.97,0-1.66-.52-1.62-1.58.04-1.11.63-1.88,1.8-1.81.99.06,1.46.79,1.5,1.78Z"/>
          <path class="cls-2" d="M489.41,403.27c-.26,1.09-.91,1.88-2.12,1.93-.71.03-1.24-.51-1.14-1.23.17-1.16.93-1.88,2.14-1.97.8-.06,1.1.48,1.13,1.27Z"/>
          <path class="cls-3" d="M328.1,504.96c-1.39-.37-1.91-1.51-2.12-2.8-.14-.86,0-1.93,1.18-1.74,1.47.24,1.86,1.6,2.07,2.87.12.75-.12,1.48-1.13,1.67Z"/>
          <path class="cls-14" d="M121.49,296.79c.91.1,1.6.53,1.69,1.52.09,1.01-.49,1.65-1.47,1.64-1.1-.01-1.75-.76-1.73-1.84.01-.83.64-1.27,1.51-1.33Z"/>
          <path class="cls-12" d="M486.52,54.97c-1.66.11-2.15-.55-2.11-1.52.04-1.09.71-1.76,1.83-1.88,1.02-.11,1.72.3,1.72,1.38,0,1.26-.74,1.94-1.44,2.02Z"/>
          <path class="cls-11" d="M127.05,338.54c-.12.95-.66,1.43-1.51,1.41-1.13-.03-1.85-.64-1.74-1.81.09-.87.78-1.27,1.62-1.19.97.09,1.55.64,1.63,1.59Z"/>
          <path class="cls-10" d="M186.68,344.89c-.37,1.01-.49,2.4-1.97,2.54-.77.07-1.01-.84-.91-1.44.2-1.17.52-2.47,1.97-2.61.72-.07.99.7.91,1.51Z"/>
          <path class="cls-11" d="M337.13,470.42c.38.19.49.22.57.29,1.16,1.13,2.12,2.37,1.54,4.11-.15.44-.77.42-1.08.09-1.1-1.2-1.77-2.54-1.03-4.49Z"/>
          <path class="cls-9" d="M172.1,282.38c-.92-.07-1.09-.71-1-1.37.18-1.26.86-2.23,2.17-2.39.78-.09,1.09.62.96,1.32-.23,1.22-.85,2.17-2.14,2.45Z"/>
          <path class="cls-12" d="M384.67,73.95c-.34,1.24-1.21,1.85-2.52,1.85-.95,0-1.37-.6-1.2-1.44.24-1.21,1.25-1.64,2.33-1.78.89-.12,1.37.39,1.39,1.37Z"/>
          <path class="cls-15" d="M414.63,44.58c0,1.03-.35,1.73-1.19,1.8-1.13.1-1.75-.62-1.77-1.73-.02-.84.44-1.43,1.32-1.46,1.04-.03,1.42.71,1.64,1.38Z"/>
          <path class="cls-3" d="M301.33,93.04c-.71-.18-1.5-.38-1.28-1.4.26-1.16,1.13-1.83,2.23-1.94.7-.07,1.61.2,1.47,1.21-.18,1.31-1.13,1.94-2.43,2.12Z"/>
          <path class="cls-10" d="M518.84,113.68c-1.04-.1-1.46-.8-1.48-1.72-.03-.95.5-1.67,1.47-1.74,1.06-.07,1.46.72,1.46,1.66,0,.95-.49,1.58-1.45,1.8Z"/>
          <path class="cls-9" d="M256.03,455.81c-.39.74.14,2.28-1.3,2.1-1.13-.14-1.17-1.4-1.08-2.38.07-.82-.01-2.03,1.11-1.99,1.24.04,1.17,1.3,1.28,2.27Z"/>
          <path class="cls-10" d="M219.94,116.26c-.76,0-1.38-.2-1.37-1.03,0-1.1.61-1.78,1.71-1.9.72-.08,1.29.34,1.33,1.05.06,1.14-.71,1.66-1.67,1.88Z"/>
          <path class="cls-10" d="M400.27,451.27c-.16,1.02-.78,1.65-1.83,1.84-.87.16-1.59-.15-1.48-1.11.13-1.05.96-1.61,1.99-1.75.7-.1,1.28.1,1.32,1.02Z"/>
          <path class="cls-3" d="M375.68,42.46c-.1.87-.58,1.4-1.47,1.37-1.04-.04-1.56-.72-1.57-1.69,0-.87.55-1.42,1.44-1.39,1.05.03,1.43.8,1.6,1.71Z"/>
          <path class="cls-7" d="M244.23,463.26c-.81-.09-1.6-.31-1.57-1.26.04-1.21.98-1.57,2.02-1.59.67-.01,1.34.25,1.38,1.03.06,1.23-.86,1.58-1.83,1.82Z"/>
          <path class="cls-9" d="M227.12,466.65c-.13,1.15-.91,1.63-1.94,1.67-.81.03-1.51-.4-1.48-1.29.03-1.15.87-1.66,1.91-1.7.82-.03,1.38.44,1.51,1.32Z"/>
          <path class="cls-14" d="M554.21,153.23c-.19,1.19-.53,2.08-1.76,2.09-.95,0-1.33-.67-1.31-1.49.02-1.09.59-1.85,1.74-1.92,1-.07,1.13.76,1.34,1.32Z"/>
          <path class="cls-2" d="M404.03,471.12c.22-1.11.9-1.76,1.98-1.84.88-.07,1.49.35,1.42,1.33-.08,1.17-.89,1.7-1.94,1.81-.9.09-1.42-.37-1.46-1.3Z"/>
          <path class="cls-14" d="M317.98,59.32c1.04.02,1.84.39,1.9,1.42.05.88-.61,1.36-1.48,1.34-.82-.02-1.47-.45-1.63-1.29-.19-.97.43-1.34,1.21-1.46Z"/>
          <path class="cls-6" d="M447.43,371.52c-.37,1.16-1.15,2.26-2.66,2.56-.8.16-1.26-.41-1.02-1.13.46-1.36,1.37-2.42,2.86-2.66.53-.09,1,.29.82,1.23Z"/>
          <path class="cls-12" d="M353.31,481.12c-.06.51,0,1.29-.73,1.13-1.6-.36-1.91-1.8-2.25-3.14-.16-.63.29-1.33.69-1.17,1.37.54,2.11,1.7,2.3,3.19Z"/>
          <path class="cls-14" d="M539.21,197.4c-.18.88-.42,1.87-1.61,1.92-.8.03-1-.69-.98-1.35.04-1.01.37-1.94,1.57-1.98.8-.03.97.66,1.02,1.42Z"/>
          <path class="cls-2" d="M175.67,416.24c-.24.95-.96,1.41-1.88,1.37-.94-.03-1.74-.54-1.55-1.6.17-.97,1.06-1.33,1.97-1.25.8.07,1.37.57,1.46,1.48Z"/>
          <path class="cls-3" d="M127.21,273.17c-.13.86-.62,1.41-1.48,1.35-.98-.08-1.51-.75-1.49-1.73.01-.9.57-1.36,1.44-1.31,1.02.06,1.44.75,1.53,1.69Z"/>
          <path class="cls-14" d="M221.37,463.91c-.96-.03-1.77-.41-1.74-1.45.03-.99.88-1.46,1.77-1.57.98-.12,1.76.38,1.74,1.41-.02.99-.87,1.39-1.77,1.61Z"/>
          <path class="cls-15" d="M453.82,385.32c.99.28.98,1.08.93,1.83-.07,1.08-.18,2.43-1.38,2.63-1.03.17-1.27-1-1.1-1.86.2-1.01.24-2.22,1.55-2.6Z"/>
          <path class="cls-1" d="M230.35,440.98c-.14-1.28.03-2.49,1.02-2.62,1.29-.16,1.25,1.22,1.24,2.09,0,.89.01,2.13-1.29,2.17-1.32.04-.77-1.21-.98-1.64Z"/>
          <path class="cls-1" d="M475.74,117.74c.71.05,1.69-.02,1.69.97,0,1.5-1.45,1.31-2.39,1.56-.72.19-1.74,0-1.72-.89.03-1.41,1.39-1.35,2.42-1.63Z"/>
          <path class="cls-5" d="M223.97,407.47c-.09,1.08-.19,2.37-1.52,2.42-.87.03-.83-1.15-.73-1.83.15-.97-.06-2.44,1.45-2.43,1,0,.72,1.11.8,1.84Z"/>
          <path class="cls-9" d="M528.13,361.89c.09.77-.28,1.39-.79,1.17-1.31-.56-2.23-1.6-2.38-3.1-.05-.48.02-1.25.76-1.03,1.49.43,1.97,1.79,2.41,2.96Z"/>
          <path class="cls-2" d="M528.8,322.34c.82.06,1.24.56,1.14,1.28-.14,1.03-.72,1.83-1.83,1.97-.86.11-1.17-.53-1.09-1.23.12-1.04.75-1.75,1.79-2.02Z"/>
          <path class="cls-1" d="M445.04,78.34c-1.18-.08-2.08-.4-1.92-1.45.18-1.16,1.19-1.69,2.32-1.76.82-.05,1.51.33,1.5,1.24-.02,1.34-1.24,1.5-1.9,1.97Z"/>
          <path class="cls-6" d="M342.21,470.93c.78-.06,1.48.08,1.53.89.07,1.19-.81,1.69-1.82,1.87-.7.13-1.43-.22-1.48-.92-.09-1.19.83-1.63,1.77-1.84Z"/>
          <path class="cls-15" d="M184.26,192.18c-1.33.04-1.6-.63-1.53-1.45.11-1.22.87-1.93,2.08-2.02.68-.05,1.33.22,1.29,1.05-.07,1.34-.96,2.04-1.85,2.42Z"/>
          <path class="cls-7" d="M542,249.72c-.86-.12-1.11-.71-1.03-1.38.13-1.01.61-1.91,1.73-1.96.75-.03,1.05.73.97,1.37-.13.97-.54,1.84-1.67,1.98Z"/>
          <path class="cls-11" d="M449.29,350.99c-.8,1.87-2.23,2.16-3.79,2.08-.38-.02-.85-.53-.47-.95,1.05-1.17,2.32-1.89,4.26-1.13Z"/>
          <path class="cls-10" d="M126.28,289.51c-.14.87-.61,1.47-1.5,1.33-.9-.14-1.62-.7-1.57-1.74.04-.9.61-1.4,1.5-1.31.97.11,1.54.7,1.58,1.72Z"/>
          <path class="cls-1" d="M189.3,260.11c-.61.98-.85,2.31-2.35,2.26-.92-.03-.9-.83-.78-1.4.22-1.11.93-1.94,2.08-2.11.79-.11.98.59,1.06,1.24Z"/>
          <path class="cls-14" d="M257.08,99.53c-.28.95-1.01,1.35-1.96,1.27-.69-.06-1.35-.49-1.21-1.24.18-.98.99-1.37,1.96-1.29.72.06,1.23.4,1.2,1.27Z"/>
          <path class="cls-10" d="M419.03,66.07c.1.96-.19,1.54-.95,1.58-.98.06-1.6-.55-1.72-1.5-.1-.8.12-1.56,1.12-1.54,1.03.02,1.44.75,1.55,1.46Z"/>
          <path class="cls-10" d="M143.38,188.25c-1.11.05-1.44-.7-1.49-1.61-.04-.82.37-1.43,1.22-1.58,1.08-.18,1.58.48,1.68,1.41.1.97-.4,1.59-1.41,1.77Z"/>
          <path class="cls-4" d="M259.8,444.65c-.16.73.01,1.82-1.07,1.65-1.26-.2-1.07-1.4-1.07-2.33,0-.84.06-2.07,1.08-1.94,1.48.19.74,1.73,1.06,2.62Z"/>
          <path class="cls-7" d="M457.48,405.78c.87-.01,1.27.45,1.11,1.19-.21,1.02-.94,1.6-1.97,1.77-.63.1-1.07-.22-1.05-.84.03-1.25.89-1.8,1.91-2.11Z"/>
          <path class="cls-1" d="M180.36,235.74c-1.02.08-1.41-.31-1.36-1.1.08-1.21.78-1.95,1.92-2.2.95-.2,1.44.35,1.3,1.26-.17,1.16-.92,1.84-1.87,2.04Z"/>
          <path class="cls-13" d="M309.23,472.03c-.23.64.1,1.73-.74,1.59-1.58-.26-1.53-1.75-1.62-2.98-.05-.63.11-1.57.84-1.35,1.25.39,1.37,1.69,1.53,2.74Z"/>
          <path class="cls-10" d="M333.97,114.55c.58-.17.83-.33.97-.27,1.14.53,2.53.73,3.08,2.09.06.15-.34.7-.46.68-1.49-.24-2.87-.67-3.58-2.5Z"/>
          <path class="cls-2" d="M344.69,57.94c-.24.9-.83,1.24-1.68,1.08-.8-.15-1.38-.65-1.39-1.5-.02-.95.66-1.35,1.48-1.24.91.12,1.53.68,1.59,1.67Z"/>
          <path class="cls-2" d="M409.91,74.26c-.91-.34-1.46-.94-1.47-1.92,0-.79.49-1.24,1.23-1.09.94.19,1.45.91,1.45,1.87,0,.75-.43,1.18-1.21,1.14Z"/>
          <path class="cls-5" d="M430.73,376.36c-.36,1.08-.62,2.36-1.82,2.71-.66.19-1.03-.84-.79-1.39.43-1,.41-2.46,1.74-2.73.82-.17.77.78.87,1.42Z"/>
          <path class="cls-10" d="M474.23,403.25c-.91.11-1.26-.35-1.28-1.08-.02-1.14.71-1.73,1.72-1.91.71-.13,1.32.27,1.27,1.02-.07,1.05-.84,1.63-1.71,1.97Z"/>
          <path class="cls-3" d="M418.21,339.06c-.9,2.19-1.69,3.35-3.66,3.64.08-2.08,1.25-2.92,3.66-3.64Z"/>
          <path class="cls-9" d="M441.79,347.73c.66-.13,1.36.11,1.19.69-.36,1.25-1.51,1.68-2.71,1.95-.64.15-1.26-.05-1.14-.66.27-1.4,1.67-1.5,2.66-1.98Z"/>
          <path class="cls-10" d="M523.49,309.23c.95.14.91.86.8,1.45-.17.88-.72,1.55-1.67,1.65-.9.09-1.03-.61-.95-1.25.13-1.06.82-1.65,1.82-1.84Z"/>
          <path class="cls-2" d="M226.15,156.74c-.68.07-1.08-.27-1.11-.86-.06-.96.52-1.62,1.35-1.94.78-.29,1.22.25,1.2.97-.02.93-.61,1.52-1.44,1.83Z"/>
          <path class="cls-12" d="M461.79,401.19c-1.78.38-3.1-.29-4.42-1.84,2.15-.39,3.37.52,4.42,1.84Z"/>
        </g>
      </g>
    </g>
  </g>
</svg>