<?xml version="1.0" encoding="UTF-8"?>
<svg id="Layer_1" data-name="Layer 1" xmlns="http://www.w3.org/2000/svg" viewBox="0 0 1920 1400">
  <defs>
    <style>
      .cls-1 {
        fill: red;
        opacity: .15;
        stroke-width: 0px;
      }
    </style>
  </defs>
  <path class="cls-1" d="M1022.51,1006.4s-.06,0-.11,0c-3.38-.04-6.43.12-9.09.45-2.67.34-4.95.85-6.82,1.53-1.87.68-3.32,1.53-4.31,2.52-.99.99-1.52,2.14-1.54,3.42-.01.65.1,1.27.32,1.86.23.59.57,1.15,1.03,1.68s1.04,1.02,1.73,1.47c.69.45,1.49.87,2.4,1.25.9.37,1.92.7,3.03.99,1.12.29,2.33.54,3.64.74,1.31.2,2.71.37,4.2.48,1.49.12,3.06.19,4.71.21.06,0,.11,0,.17,0,.06,0,.11,0,.17,0,.06,0,.11,0,.17,0,.06,0,.11,0,.17,0,2.62.03,5.33-.03,7.94-.24,2.61-.21,5.1-.57,7.28-1.15,2.18-.58,4.03-1.36,5.36-2.43,1.33-1.06,2.12-2.4,2.18-4.07.03-.67-.07-1.3-.28-1.9-.21-.6-.54-1.15-.99-1.68s-1.01-1-1.69-1.45c-.68-.44-1.47-.85-2.37-1.22-.96-.39-2.04-.73-3.25-1.03-1.2-.3-2.53-.55-3.98-.76-1.44-.21-3.01-.37-4.69-.49-1.68-.12-3.47-.19-5.38-.21"/>
  <path class="cls-1" d="M1022.7,1014.88c-.22,0-.33,0-.54,0-3.38-.01-6.37.17-8.96.53-2.59.36-4.77.9-6.53,1.62-1.76.72-3.09,1.6-3.97,2.66-.88,1.05-1.32,2.27-1.28,3.64.03,1.33.55,2.53,1.52,3.58.97,1.06,2.4,1.97,4.24,2.72,1.84.75,4.09,1.34,6.71,1.75,2.62.41,5.61.64,8.93.68.04,0,.07,0,.11,0,3.38.03,6.44-.16,9.13-.54,2.69-.38,5.01-.97,6.9-1.73,1.89-.76,3.37-1.7,4.36-2.8,1-1.1,1.52-2.35,1.53-3.75,0-.55-.13-1.08-.39-1.6-.26-.52-.65-1.03-1.15-1.52-.51-.49-1.14-.95-1.88-1.39-.75-.44-1.61-.85-2.58-1.23-1.03-.4-2.16-.76-3.37-1.08-1.21-.31-2.51-.58-3.88-.81-1.37-.22-2.8-.4-4.29-.52-1.49-.12-3.03-.19-4.61-.21"/>
  <path class="cls-1" d="M1021.86,988.67c-.09,0-.13,0-.22,0-1.63-.02-3.18.02-4.65.09-1.47.08-2.87.2-4.17.38-1.3.17-2.52.39-3.64.65-1.12.26-2.14.57-3.05.92-.93.36-1.75.75-2.45,1.19-.7.44-1.28.91-1.75,1.42-.46.51-.81,1.06-1.03,1.64-.22.58-.32,1.19-.29,1.83.06,1.34.56,2.52,1.5,3.54.94,1.02,2.33,1.88,4.15,2.58s4.08,1.23,6.77,1.61c2.69.37,5.82.59,9.38.63,1.69.02,3.32-.01,4.86-.08,1.54-.07,3-.19,4.37-.35,1.37-.16,2.65-.37,3.83-.62s2.27-.55,3.25-.9c.97-.34,1.82-.72,2.55-1.13.73-.42,1.35-.87,1.85-1.35.5-.49.87-1,1.13-1.55.25-.55.38-1.13.39-1.74,0-.62-.13-1.21-.39-1.78-.26-.57-.65-1.12-1.16-1.64-.51-.52-1.15-1.01-1.91-1.47-.76-.46-1.64-.89-2.63-1.28-1.02-.4-2.15-.76-3.37-1.07-1.22-.31-2.54-.57-3.94-.79-1.4-.22-2.89-.38-4.45-.5-1.56-.12-3.2-.19-4.91-.21"/>
  <path class="cls-1" d="M1613.45,1186.98c-3.53-.36-6.7-.48-9.48-.37-2.78.11-5.16.44-7.09.99-1.93.55-3.42,1.31-4.4,2.26s-1.47,2.11-1.4,3.45c.04.69.2,1.38.49,2.04.29.66.71,1.31,1.25,1.93.54.62,1.21,1.23,2,1.8.79.58,1.69,1.13,2.72,1.65,1.02.52,2.13,1,3.33,1.44,1.2.44,2.49.84,3.86,1.19,1.37.35,2.81.66,4.32.93,1.51.26,3.09.48,4.73.65.04,0,.07,0,.11.01,3.58.37,6.8.49,9.63.39,2.82-.1,5.24-.44,7.21-.98,1.97-.55,3.48-1.31,4.48-2.26,1-.96,1.5-2.12,1.44-3.46-.04-.69-.2-1.37-.48-2.03-.28-.66-.69-1.3-1.21-1.92-.52-.62-1.17-1.21-1.93-1.78-.76-.57-1.63-1.11-2.62-1.62-1-.52-2.11-1-3.31-1.44-1.2-.44-2.5-.84-3.89-1.2-1.39-.36-2.86-.68-4.41-.95-1.55-.27-3.18-.5-4.87-.68-.01,0-.02,0-.03,0-.18-.02-.27-.03-.44-.06"/>
  <path class="cls-1" d="M1612.47,1196.44c-1.46-.15-2.87-.25-4.21-.29-1.35-.04-2.63-.04-3.84.02-1.21.06-2.36.17-3.42.34-1.07.17-2.06.38-2.96.65-1.01.3-1.9.66-2.67,1.07s-1.41.88-1.92,1.4c-.51.52-.9,1.09-1.15,1.71-.26.62-.38,1.29-.37,2,.01,1.37.52,2.67,1.49,3.87.96,1.2,2.38,2.3,4.22,3.29,1.84.99,4.09,1.85,6.71,2.58,2.63.73,5.62,1.32,8.96,1.75.14.02.27.03.41.05.14.02.27.03.41.05.14.02.27.03.41.05.14.02.27.03.4.04,1.54.16,3.06.26,4.54.3,1.48.04,2.92.03,4.3-.04,1.38-.07,2.7-.2,3.94-.38,1.24-.18,2.4-.42,3.46-.72,1-.28,1.89-.61,2.66-.98.77-.37,1.43-.77,1.97-1.21.54-.44.95-.91,1.23-1.41.29-.5.44-1.03.47-1.59.02-.65-.09-1.3-.34-1.94-.25-.64-.63-1.28-1.15-1.9s-1.16-1.24-1.93-1.83c-.77-.6-1.67-1.18-2.69-1.74-1.09-.59-2.29-1.15-3.6-1.66-1.31-.51-2.71-.98-4.2-1.41-1.49-.42-3.06-.8-4.7-1.12-1.64-.32-3.34-.59-5.09-.8-.11-.01-.22-.03-.33-.04-.11-.01-.22-.03-.33-.04-.11-.01-.22-.02-.33-.04-.11-.01-.22-.02-.33-.03"/>
  <path class="cls-1" d="M262.83,1103.96c-.18.02-.28.03-.46.05-3.23.35-6.17.86-8.76,1.51-2.59.65-4.85,1.45-6.72,2.36-1.87.91-3.36,1.95-4.43,3.08-1.07,1.13-1.71,2.37-1.89,3.68-.1.68-.06,1.33.11,1.92.17.6.46,1.15.88,1.65.42.5.97.96,1.64,1.36.67.4,1.46.75,2.38,1.05.89.29,1.9.52,2.99.69,1.1.17,2.3.29,3.58.36,1.29.06,2.66.07,4.12.02s3-.16,4.61-.33c.02,0,.03,0,.05,0,1.8-.19,3.52-.42,5.15-.69,1.63-.27,3.17-.58,4.62-.94,1.44-.35,2.79-.74,4.02-1.17,1.24-.43,2.36-.89,3.37-1.39.98-.49,1.85-1.01,2.6-1.56.75-.55,1.4-1.13,1.92-1.73.52-.6.93-1.23,1.21-1.89.28-.65.44-1.32.48-2.01.07-1.32-.37-2.44-1.28-3.36-.91-.92-2.3-1.65-4.13-2.16-1.83-.51-4.1-.82-6.79-.9-2.69-.09-5.78.05-9.26.41"/>
  <path class="cls-1" d="M1001.55,997.56c-.07,0-.14,0-.21,0s-.14,0-.21,0c-.07,0-.14,0-.21,0-.07,0-.14,0-.21,0-1.77,0-3.45.03-5.04.12-1.59.09-3.08.22-4.46.4-1.38.18-2.66.41-3.83.68-1.16.27-2.21.59-3.13.94-.88.34-1.64.73-2.3,1.15s-1.21.89-1.64,1.39c-.43.5-.76,1.03-.96,1.6-.21.56-.29,1.16-.26,1.78.07,1.23.62,2.34,1.62,3.32s2.43,1.82,4.26,2.51c1.84.69,4.07,1.23,6.67,1.61,2.59.38,5.55.59,8.82.62.04,0,.06,0,.11,0,1.7.01,3.34-.02,4.9-.11,1.56-.09,3.04-.23,4.44-.41,1.4-.19,2.7-.42,3.91-.71,1.21-.28,2.32-.62,3.33-.99.94-.35,1.77-.74,2.48-1.16.71-.42,1.31-.87,1.79-1.35.48-.48.84-.99,1.08-1.52.24-.53.36-1.09.35-1.67,0-.65-.13-1.26-.36-1.83-.23-.57-.57-1.11-1.03-1.61-.45-.5-1.01-.96-1.69-1.38-.67-.42-1.45-.81-2.34-1.15-.91-.35-1.92-.66-3.04-.93-1.12-.27-2.34-.5-3.66-.69-1.33-.19-2.75-.33-4.28-.44-1.53-.1-3.16-.16-4.88-.18"/>
  <path class="cls-1" d="M867.59,1024.14c-.09,0-.13,0-.22,0-3.27.05-6.25.28-8.89.68-2.64.4-4.93.96-6.81,1.67-1.89.71-3.37,1.55-4.38,2.52-1.01.97-1.56,2.05-1.58,3.24-.02.71.09,1.38.3,2,.22.62.55,1.2,1,1.73.45.53,1.01,1.01,1.69,1.45.68.43,1.47.82,2.38,1.16.9.34,1.92.63,3.06.88s2.4.45,3.77.6c1.38.16,2.87.27,4.49.33,1.61.07,3.35.09,5.2.07.04,0,.08,0,.13,0,.04,0,.08,0,.13,0,.04,0,.08,0,.13,0s.08,0,.13,0c1.7-.03,3.33-.11,4.86-.23,1.54-.12,2.98-.29,4.33-.51,1.35-.21,2.6-.47,3.74-.77,1.14-.3,2.17-.64,3.09-1.03.9-.38,1.69-.79,2.36-1.24.67-.45,1.23-.94,1.66-1.46.44-.52.75-1.07.95-1.66.2-.58.27-1.19.23-1.83-.1-1.17-.71-2.24-1.78-3.19-1.07-.94-2.59-1.76-4.49-2.42-1.9-.66-4.19-1.18-6.79-1.51-2.6-.34-5.51-.5-8.66-.46"/>
  <path class="cls-1" d="M1856.49,1357.94c-.08-.01-.17-.02-.25-.04-.08-.01-.16-.02-.24-.03s-.16-.02-.24-.03c-.08-.01-.16-.02-.25-.04-1.64-.23-3.19-.41-4.66-.53-1.47-.12-2.85-.17-4.14-.17-1.29,0-2.48.06-3.56.18-1.09.12-2.07.3-2.94.54-.9.25-1.69.55-2.36.92-.67.37-1.22.8-1.66,1.29-.44.49-.75,1.04-.95,1.65-.2.61-.27,1.28-.23,2.01.09,1.63.65,3.15,1.67,4.55,1.02,1.4,2.48,2.68,4.38,3.83,1.9,1.15,4.23,2.16,6.97,3.03,2.74.87,5.88,1.59,9.41,2.14.09.01.17.03.26.04.09.01.17.03.26.04.09.01.17.03.26.04.09.01.17.03.26.04,3.05.44,5.87.61,8.39.53,2.52-.08,4.75-.4,6.59-.95,1.84-.55,3.3-1.31,4.29-2.28.99-.96,1.53-2.12,1.51-3.46,0-.75-.14-1.48-.39-2.2-.25-.72-.62-1.41-1.11-2.09s-1.09-1.33-1.81-1.95c-.71-.62-1.54-1.22-2.48-1.78-.98-.58-2.08-1.14-3.29-1.65-1.21-.52-2.54-1-3.97-1.45-1.43-.45-2.96-.85-4.59-1.22-1.63-.37-3.35-.69-5.15-.97"/>
</svg>