<?xml version="1.0" encoding="UTF-8"?>
<svg id="Layer_1" data-name="Layer 1" xmlns="http://www.w3.org/2000/svg" viewBox="0 0 1920 1400">
  <defs>
    <style>
      .cls-1 {
        fill: red;
        stroke-width: 0px;
      }
    </style>
  </defs>
  <path class="cls-1" d="M1022.76,996.94s-.02,0-.04,0c-1.13-.01-2.14.04-3.03.15-.89.11-1.65.28-2.27.51-.62.23-1.11.51-1.44.84-.33.33-.51.71-.51,1.14,0,.22.03.42.11.62.08.2.19.38.34.56s.35.34.58.49c.23.15.5.29.8.42.3.12.64.23,1.01.33.37.1.78.18,1.21.25.44.07.9.12,1.4.16.5.04,1.02.06,1.57.07.02,0,.04,0,.06,0,.02,0,.04,0,.06,0,.02,0,.04,0,.06,0,.02,0,.04,0,.06,0,.87.01,1.78,0,2.65-.08.87-.07,1.7-.19,2.43-.38.73-.19,1.34-.45,1.79-.81.44-.35.71-.8.73-1.36,0-.22-.02-.43-.09-.63-.07-.2-.18-.38-.33-.56s-.34-.33-.56-.48c-.23-.15-.49-.28-.79-.41-.32-.13-.68-.24-1.08-.34-.4-.1-.84-.18-1.33-.25-.48-.07-1-.12-1.56-.16-.56-.04-1.16-.06-1.79-.07"/>
  <path class="cls-1" d="M1022.99,1005.6c-.07,0-.11,0-.18,0-1.13,0-2.12.06-2.99.18s-1.59.3-2.18.54c-.59.24-1.03.53-1.32.89-.29.35-.44.76-.43,1.21,0,.44.18.84.51,1.19.32.35.8.66,1.41.91.61.25,1.36.45,2.24.58.87.14,1.87.21,2.98.23.01,0,.02,0,.04,0,1.13.01,2.15-.05,3.04-.18.9-.13,1.67-.32,2.3-.58.63-.25,1.12-.57,1.45-.93.33-.37.51-.78.51-1.25,0-.18-.04-.36-.13-.53-.09-.17-.22-.34-.38-.51-.17-.16-.38-.32-.63-.46-.25-.15-.54-.28-.86-.41-.34-.13-.72-.25-1.12-.36-.4-.1-.84-.19-1.29-.27-.46-.07-.93-.13-1.43-.17-.5-.04-1.01-.06-1.54-.07"/>
  <path class="cls-1" d="M1022.36,979.16s-.04,0-.07,0c-.54,0-1.06,0-1.55.03-.49.03-.96.07-1.39.13-.43.06-.84.13-1.21.22-.37.09-.71.19-1.02.31-.31.12-.58.25-.82.4-.23.15-.43.3-.58.47-.15.17-.27.35-.34.55-.07.19-.11.4-.1.61.02.45.19.84.5,1.18.31.34.78.63,1.38.86s1.36.41,2.26.54c.9.12,1.94.2,3.13.21.56,0,1.11,0,1.62-.03.51-.02,1-.06,1.46-.12.46-.05.88-.12,1.28-.21s.76-.18,1.08-.3c.32-.11.61-.24.85-.38.24-.14.45-.29.62-.45.17-.16.29-.33.38-.52.08-.18.13-.38.13-.58,0-.21-.04-.4-.13-.59-.09-.19-.22-.37-.39-.55-.17-.17-.38-.34-.64-.49-.25-.15-.55-.3-.88-.43-.34-.13-.72-.25-1.12-.36-.41-.1-.85-.19-1.31-.26-.47-.07-.96-.13-1.48-.17-.52-.04-1.07-.06-1.64-.07"/>
  <path class="cls-1" d="M1613.73,1177.98c-1.18-.12-2.23-.16-3.16-.12-.93.04-1.72.15-2.36.33-.64.18-1.14.44-1.47.75s-.49.7-.47,1.15c.01.23.07.46.16.68.1.22.24.44.42.64.18.21.4.41.67.6.26.19.56.38.91.55.34.17.71.33,1.11.48.4.15.83.28,1.29.4.46.12.94.22,1.44.31.5.09,1.03.16,1.58.22.01,0,.02,0,.04,0,1.19.12,2.27.16,3.21.13s1.75-.15,2.4-.33c.66-.18,1.16-.44,1.49-.75.33-.32.5-.71.48-1.15-.01-.23-.07-.46-.16-.68-.09-.22-.23-.43-.4-.64-.17-.21-.39-.4-.64-.59-.25-.19-.54-.37-.87-.54-.33-.17-.7-.33-1.1-.48-.4-.15-.83-.28-1.3-.4-.46-.12-.95-.23-1.47-.32-.52-.09-1.06-.17-1.62-.23,0,0,0,0,0,0-.06,0-.09-.01-.15-.02"/>
  <path class="cls-1" d="M1613.96,1187.63c-.49-.05-.96-.08-1.4-.1-.45-.01-.88-.01-1.28,0-.4.02-.79.06-1.14.11-.36.06-.69.13-.99.22-.34.1-.63.22-.89.36s-.47.29-.64.47c-.17.17-.3.36-.38.57-.09.21-.13.43-.12.67,0,.46.17.89.5,1.29.32.4.79.77,1.41,1.1.61.33,1.36.62,2.24.86.88.24,1.87.44,2.99.58.05,0,.09.01.14.02.05,0,.09.01.14.02.05,0,.09.01.14.02.05,0,.09,0,.13.01.51.05,1.02.09,1.51.1.49.01.97,0,1.43-.01.46-.02.9-.07,1.31-.13.41-.06.8-.14,1.15-.24.33-.09.63-.2.89-.33.26-.12.48-.26.66-.4.18-.15.32-.3.41-.47.1-.17.15-.34.16-.53,0-.22-.03-.43-.11-.65-.08-.21-.21-.43-.38-.63s-.39-.41-.64-.61c-.26-.2-.56-.39-.9-.58-.36-.2-.76-.38-1.2-.55-.44-.17-.9-.33-1.4-.47-.5-.14-1.02-.27-1.57-.37-.55-.11-1.11-.2-1.7-.27-.04,0-.07,0-.11-.01-.04,0-.07,0-.11-.01-.04,0-.07,0-.11-.01-.04,0-.07,0-.11-.01"/>
  <path class="cls-1" d="M262.54,1094.74c-.06,0-.09,0-.15.02-1.08.12-2.06.29-2.92.5-.86.22-1.62.48-2.24.79-.62.3-1.12.65-1.48,1.03-.36.38-.57.79-.63,1.23-.03.23-.02.44.04.64.06.2.15.38.29.55.14.17.32.32.55.45.22.13.49.25.79.35.3.1.63.17,1,.23.37.06.77.1,1.19.12.43.02.89.02,1.37,0s1-.05,1.54-.11c0,0,.01,0,.02,0,.6-.06,1.17-.14,1.72-.23.54-.09,1.06-.19,1.54-.31.48-.12.93-.25,1.34-.39.41-.14.79-.3,1.12-.46.33-.16.62-.34.87-.52s.47-.38.64-.58c.17-.2.31-.41.4-.63.09-.22.15-.44.16-.67.02-.44-.12-.81-.43-1.12-.3-.31-.77-.55-1.38-.72-.61-.17-1.37-.27-2.26-.3-.9-.03-1.93.02-3.09.14"/>
  <path class="cls-1" d="M1001.14,987.94s-.05,0-.07,0-.05,0-.07,0c-.02,0-.05,0-.07,0-.02,0-.05,0-.07,0-.59,0-1.15.01-1.68.04-.53.03-1.03.07-1.49.13-.46.06-.89.14-1.28.23-.39.09-.74.2-1.04.31-.29.11-.55.24-.77.38s-.4.3-.55.46c-.14.17-.25.34-.32.53-.07.19-.1.39-.09.59.02.41.21.78.54,1.11s.81.61,1.42.84c.61.23,1.36.41,2.22.54.86.13,1.85.2,2.94.21.01,0,.02,0,.04,0,.57,0,1.11,0,1.63-.04.52-.03,1.01-.08,1.48-.14.47-.06.9-.14,1.3-.24.4-.09.77-.21,1.11-.33.31-.12.59-.25.83-.39.24-.14.44-.29.6-.45.16-.16.28-.33.36-.51.08-.18.12-.36.12-.56,0-.22-.04-.42-.12-.61-.08-.19-.19-.37-.34-.54-.15-.17-.34-.32-.56-.46-.22-.14-.48-.27-.78-.38-.3-.12-.64-.22-1.01-.31-.37-.09-.78-.17-1.22-.23-.44-.06-.92-.11-1.43-.15-.51-.03-1.05-.05-1.63-.06"/>
  <path class="cls-1" d="M867.55,1014.58s-.04,0-.07,0c-1.09.02-2.08.09-2.96.23-.88.13-1.64.32-2.27.56-.63.24-1.12.52-1.46.84-.34.32-.52.68-.53,1.08,0,.24.03.46.1.67.07.21.18.4.33.58.15.18.34.34.56.48.23.14.49.27.79.39.3.11.64.21,1.02.29s.8.15,1.26.2c.46.05.96.09,1.5.11.54.02,1.12.03,1.73.02.01,0,.03,0,.04,0,.01,0,.03,0,.04,0,.01,0,.03,0,.04,0s.03,0,.04,0c.57-.01,1.11-.04,1.62-.08.51-.04.99-.1,1.44-.17.45-.07.87-.16,1.25-.26.38-.1.72-.21,1.03-.34.3-.13.56-.26.79-.41.22-.15.41-.31.55-.49.15-.17.25-.36.32-.55.07-.19.09-.4.08-.61-.03-.39-.24-.75-.59-1.06s-.86-.59-1.5-.81c-.63-.22-1.4-.39-2.26-.5s-1.84-.17-2.89-.15"/>
  <path class="cls-1" d="M1856.93,1349.33s-.06,0-.08-.01c-.03,0-.05,0-.08-.01s-.05,0-.08-.01c-.03,0-.05,0-.08-.01-.55-.08-1.06-.14-1.55-.18-.49-.04-.95-.06-1.38-.06-.43,0-.83.02-1.19.06-.36.04-.69.1-.98.18-.3.08-.56.18-.79.31-.22.12-.41.27-.55.43-.15.16-.25.35-.32.55-.07.2-.09.43-.08.67.03.54.22,1.05.56,1.52.34.47.83.89,1.46,1.28.63.38,1.41.72,2.32,1.01.91.29,1.96.53,3.14.71.03,0,.06,0,.09.01.03,0,.06,0,.09.01.03,0,.06,0,.09.01.03,0,.06,0,.09.01,1.02.15,1.96.2,2.8.18.84-.03,1.58-.13,2.2-.32.61-.18,1.1-.44,1.43-.76.33-.32.51-.71.5-1.15,0-.25-.05-.49-.13-.73-.08-.24-.21-.47-.37-.7s-.36-.44-.6-.65c-.24-.21-.51-.41-.83-.59-.33-.19-.69-.38-1.1-.55-.4-.17-.85-.33-1.32-.48-.48-.15-.99-.28-1.53-.41-.54-.12-1.12-.23-1.72-.32"/>
</svg>